<?xml version="1.0" standalone="no"?>
<!DOCTYPE svg PUBLIC "-//W3C//DTD SVG 20010904//EN"
 "http://www.w3.org/TR/2001/REC-SVG-20010904/DTD/svg10.dtd">
<svg version="1.0" xmlns="http://www.w3.org/2000/svg"
 width="260.000000pt" height="260.000000pt" viewBox="0 0 260.000000 260.000000"
 preserveAspectRatio="xMidYMid meet">
<metadata>
Created by potrace 1.11, written by Peter Selinger 2001-2013
</metadata>
<g transform="translate(0.000000,260.000000) scale(0.100000,-0.100000)"
fill="#000000" stroke="none">
<path d="M0 1300 l0 -1300 509 0 509 0 20 48 c34 81 78 317 60 328 -4 3 -39
14 -76 24 -269 75 -533 292 -659 545 -36 71 -93 229 -93 257 0 5 24 -12 53
-39 103 -93 217 -137 362 -137 178 1 332 88 436 248 72 110 83 152 84 318 l0
147 41 11 c34 10 52 9 96 -4 l55 -16 -1 -117 c0 -85 5 -135 18 -178 69 -231
241 -382 466 -409 76 -9 209 16 286 54 34 16 86 53 115 80 29 27 54 48 56 46
7 -6 -59 -200 -85 -251 -172 -343 -524 -574 -901 -592 l-124 -6 54 -27 c46
-24 146 -53 213 -62 16 -2 23 -19 37 -84 10 -45 27 -105 39 -133 l22 -51 504
0 504 0 0 1300 0 1300 -1300 0 -1300 0 0 -1300z m1718 1112 c-31 -61 -118
-130 -232 -187 -75 -36 -87 -45 -71 -52 11 -4 99 -8 195 -8 252 0 399 37 562
141 l67 43 24 -42 c46 -79 127 -288 127 -328 0 -5 -21 5 -47 22 -84 53 -161
71 -323 76 -121 4 -160 1 -237 -15 -145 -33 -245 -92 -305 -181 -17 -25 -32
-47 -34 -49 -1 -2 -25 4 -53 14 -50 16 -160 16 -216 0 -16 -5 -25 3 -45 35
-49 81 -163 149 -298 179 -187 42 -420 21 -548 -49 -65 -35 -68 -25 -16 55 61
94 154 162 246 179 20 4 169 8 329 9 235 2 307 5 367 19 129 30 283 87 406
151 131 69 143 68 102 -12z m-889 -457 c35 -9 91 -30 123 -47 289 -154 200
-641 -137 -759 -92 -31 -217 -24 -308 19 -129 60 -232 195 -258 337 -15 78 -6
192 19 248 24 53 80 118 130 149 99 61 293 85 431 53z m1257 -5 c128 -33 205
-95 256 -206 19 -41 23 -65 22 -149 -1 -83 -5 -111 -27 -169 -48 -123 -128
-209 -243 -263 -53 -25 -70 -28 -169 -28 -104 0 -114 2 -178 33 -224 110 -331
409 -220 615 85 156 323 227 559 167z"/>
<path d="M715 1890 c-90 -12 -168 -46 -225 -97 -53 -48 -80 -89 -80 -121 0
-37 28 -33 59 10 57 78 141 115 281 126 82 7 85 8 95 35 8 24 6 31 -10 43 -20
15 -30 15 -120 4z"/>
<path d="M601 1659 c-41 -13 -98 -48 -130 -83 -26 -28 -50 -32 -83 -15 -11 6
-22 8 -25 6 -8 -9 26 -65 53 -86 27 -21 64 -28 64 -12 0 4 16 29 35 54 94 123
281 133 398 19 21 -20 37 -30 37 -22 0 26 -112 125 -156 138 -48 14 -144 14
-193 1z"/>
<path d="M653 1544 c-23 -23 -25 -31 -20 -75 l6 -50 -37 7 c-20 3 -52 10 -71
15 -52 13 -48 4 11 -21 72 -32 187 -32 279 -2 36 13 75 30 85 38 19 15 18 15
-1 8 -68 -24 -93 -27 -124 -15 -39 17 -39 26 -1 46 26 13 29 19 20 35 -25 47
-106 55 -147 14z"/>
<path d="M1778 1889 c-21 -12 -24 -52 -5 -66 6 -6 48 -13 92 -16 119 -8 188
-37 256 -108 48 -50 58 -57 68 -45 7 8 10 24 6 35 -12 38 -67 103 -113 132
-81 51 -264 93 -304 68z"/>
<path d="M1818 1661 c-64 -21 -158 -105 -158 -141 0 -7 9 -1 20 13 12 14 49
40 85 58 116 57 229 37 312 -55 21 -23 43 -51 49 -62 11 -18 13 -19 46 -1 33
17 68 62 68 86 0 8 -6 9 -19 1 -34 -18 -61 -11 -97 25 -57 57 -108 78 -199 81
-44 2 -92 -1 -107 -5z"/>
<path d="M1835 1538 c-22 -26 -26 -39 -22 -70 5 -37 4 -38 -21 -31 -15 3 -45
12 -66 20 -61 21 -53 9 13 -20 123 -53 260 -56 351 -7 42 23 34 24 -41 6 -52
-13 -58 -12 -73 5 -9 11 -23 19 -31 19 -25 0 -17 17 15 30 37 15 38 32 4 59
-42 33 -96 28 -129 -11z"/>
<path d="M1344 1358 c30 -94 14 -166 -47 -221 l-32 -28 48 4 c134 13 173 192
55 253 -31 16 -31 16 -24 -8z"/>
<path d="M910 900 c0 -10 75 -72 106 -88 12 -6 41 -27 64 -47 60 -50 108 -73
174 -83 100 -16 197 13 274 82 20 18 51 40 67 49 32 16 109 86 102 93 -2 2
-17 0 -33 -6 -16 -5 -87 -11 -159 -12 -114 -3 -135 -6 -168 -25 l-38 -23 -30
23 c-28 20 -44 22 -162 25 -73 1 -147 6 -164 11 -18 5 -33 6 -33 1z"/>
</g>
</svg>
