<?xml version="1.0" standalone="no"?>
<!DOCTYPE svg PUBLIC "-//W3C//DTD SVG 20010904//EN"
 "http://www.w3.org/TR/2001/REC-SVG-20010904/DTD/svg10.dtd">
<svg version="1.0" xmlns="http://www.w3.org/2000/svg"
 width="260.000000pt" height="260.000000pt" viewBox="0 0 260.000000 260.000000"
 preserveAspectRatio="xMidYMid meet">
<metadata>
Created by potrace 1.11, written by Peter Selinger 2001-2013
</metadata>
<g transform="translate(0.000000,260.000000) scale(0.100000,-0.100000)"
fill="#000000" stroke="none">
<path d="M0 1300 l0 -1300 509 0 510 0 21 58 c24 63 57 209 61 274 l3 41 -101
33 c-118 38 -159 58 -269 129 -228 148 -405 396 -459 645 l-8 35 49 -46 c215
-200 537 -192 735 18 72 77 121 161 144 249 16 58 21 230 9 278 -5 20 0 24 39
36 38 10 54 10 99 -4 l55 -16 -1 -117 c0 -179 50 -314 159 -426 128 -131 288
-184 464 -153 105 19 193 61 262 126 29 27 54 48 56 46 4 -4 -24 -101 -53
-176 -54 -146 -177 -313 -310 -422 -191 -156 -394 -235 -628 -246 l-119 -5 34
-18 c49 -26 125 -51 193 -63 l59 -11 18 -81 c10 -45 27 -105 39 -133 l22 -51
504 0 504 0 0 1300 0 1300 -1300 0 -1300 0 0 -1300z m1735 1151 c-16 -74 -148
-187 -281 -242 -89 -36 -59 -44 154 -44 156 1 203 4 280 23 109 25 192 60 284
118 l67 43 25 -42 c42 -72 126 -291 126 -329 0 -4 -21 6 -47 23 -84 53 -161
71 -323 76 -121 4 -160 1 -237 -15 -145 -33 -245 -92 -305 -181 -17 -25 -32
-47 -34 -49 -1 -2 -25 4 -53 14 -50 16 -160 16 -216 0 -16 -5 -25 3 -45 35
-27 45 -98 103 -168 138 -73 37 -204 61 -335 61 -145 0 -251 -20 -334 -65 -39
-20 -63 -28 -63 -20 0 21 75 129 113 162 41 36 78 57 141 80 33 12 91 15 303
14 310 -2 407 10 586 69 67 23 176 69 242 104 66 35 122 62 123 60 2 -1 1 -16
-3 -33z m-907 -496 c194 -46 294 -166 295 -355 1 -194 -105 -362 -278 -442
-42 -19 -67 -22 -160 -23 -103 0 -114 2 -178 32 -129 61 -232 196 -258 338
-15 78 -6 192 19 248 25 56 83 121 137 153 99 58 291 80 423 49z m1258 -5 c87
-23 168 -70 208 -123 154 -202 56 -543 -191 -660 -64 -30 -75 -32 -178 -32
-104 0 -114 2 -178 33 -252 123 -347 474 -182 670 95 113 324 162 521 112z"/>
<path d="M715 1890 c-90 -12 -168 -46 -225 -97 -53 -48 -80 -89 -80 -121 0
-38 28 -33 60 11 56 78 138 114 285 126 76 6 80 7 90 34 8 24 6 31 -10 43 -20
15 -30 15 -120 4z"/>
<path d="M610 1661 c-47 -15 -105 -49 -134 -80 -31 -33 -54 -38 -88 -20 -28
15 -32 6 -14 -29 18 -35 62 -72 85 -72 9 0 25 16 36 36 79 147 290 171 418 46
51 -50 47 -22 -5 35 -59 64 -125 93 -208 92 -36 0 -76 -4 -90 -8z"/>
<path d="M669 1557 c-29 -22 -41 -58 -35 -99 l6 -39 -37 6 c-21 4 -53 11 -72
16 -52 13 -48 4 11 -21 76 -34 187 -32 287 3 41 14 82 33 90 42 13 13 7 12
-29 -4 -58 -25 -79 -27 -112 -11 -35 16 -35 27 -3 42 31 14 32 28 2 56 -26 25
-82 29 -108 9z"/>
<path d="M1773 1889 c-7 -7 -13 -23 -13 -35 0 -33 18 -41 105 -47 119 -8 188
-37 256 -108 48 -50 58 -57 68 -45 16 19 8 43 -30 95 -55 77 -170 131 -309
145 -47 5 -69 3 -77 -5z"/>
<path d="M1806 1656 c-49 -18 -101 -61 -129 -106 l-21 -35 39 34 c87 76 214
98 300 54 40 -21 111 -89 133 -129 10 -18 12 -19 45 -1 32 17 67 62 67 86 0 8
-6 9 -19 1 -34 -18 -66 -12 -88 18 -11 15 -44 40 -74 57 -44 24 -68 29 -134
32 -52 2 -93 -2 -119 -11z"/>
<path d="M1843 1546 c-23 -20 -28 -32 -27 -70 0 -25 -2 -46 -6 -46 -4 0 -33 9
-65 20 -77 27 -80 19 -6 -13 123 -53 260 -56 351 -7 38 21 30 26 -16 11 -59
-19 -94 -21 -94 -7 0 8 -11 17 -25 20 -32 8 -32 24 -1 36 37 14 40 27 12 55
-33 33 -85 34 -123 1z"/>
<path d="M1345 1358 c4 -12 10 -46 12 -74 5 -61 -13 -105 -60 -147 l-32 -28
48 4 c134 13 173 192 55 253 -31 16 -31 16 -23 -8z"/>
<path d="M910 902 c0 -17 61 -65 220 -172 105 -71 245 -71 350 0 123 83 194
138 209 160 15 23 15 24 -4 15 -11 -4 -85 -11 -165 -14 -126 -5 -150 -9 -183
-28 l-38 -23 -30 23 c-28 20 -46 23 -183 28 -83 3 -157 9 -164 13 -7 4 -12 3
-12 -2z"/>
</g>
</svg>
