<?xml version="1.0" standalone="no"?>
<!DOCTYPE svg PUBLIC "-//W3C//DTD SVG 20010904//EN"
 "http://www.w3.org/TR/2001/REC-SVG-20010904/DTD/svg10.dtd">
<svg version="1.0" xmlns="http://www.w3.org/2000/svg"
 width="260.000000pt" height="260.000000pt" viewBox="0 0 260.000000 260.000000"
 preserveAspectRatio="xMidYMid meet">
<metadata>
Created by potrace 1.11, written by Peter Selinger 2001-2013
</metadata>
<g transform="translate(0.000000,260.000000) scale(0.100000,-0.100000)"
fill="#000000" stroke="none">
<path d="M0 1300 l0 -1300 479 0 480 0 25 33 c57 74 108 237 118 376 l3 44
-50 13 c-290 74 -560 294 -698 569 -26 53 -77 205 -77 232 0 9 22 -5 57 -38
106 -96 219 -134 384 -127 90 3 103 7 182 46 104 52 189 133 241 231 53 102
67 167 65 304 -2 93 1 121 12 128 21 13 109 10 144 -5 l30 -12 1 -115 c0 -131
16 -196 72 -303 91 -174 256 -275 447 -276 152 0 252 37 359 132 31 27 56 45
56 39 0 -5 -12 -47 -26 -93 -88 -280 -286 -506 -558 -638 -143 -70 -226 -91
-378 -97 -71 -3 -128 -9 -128 -13 0 -17 115 -58 204 -74 l69 -12 14 -65 c21
-106 44 -167 82 -222 l37 -52 477 -3 477 -2 0 1300 0 1300 -1300 0 -1300 0 0
-1300z m1740 1240 c0 -21 -30 -83 -56 -113 -40 -47 -101 -90 -199 -139 l-89
-45 37 -7 c64 -12 238 -15 327 -5 156 17 314 73 428 151 24 17 45 28 47 26 15
-17 92 -187 115 -257 41 -121 40 -128 -12 -91 -79 57 -283 99 -418 86 -227
-23 -358 -84 -447 -207 l-34 -48 -42 16 c-50 18 -160 20 -202 3 -27 -10 -31
-9 -44 12 -32 51 -121 127 -182 156 -64 30 -172 56 -284 68 -123 13 -332 -29
-409 -81 -20 -14 -39 -25 -42 -25 -2 0 9 26 25 58 59 116 159 192 282 211 37
6 144 8 263 4 225 -6 330 3 483 43 114 29 281 98 373 153 71 43 80 46 80 31z
m-880 -526 c194 -55 296 -224 261 -429 -27 -152 -118 -278 -249 -342 -73 -37
-80 -38 -181 -38 -137 0 -196 22 -287 107 -106 100 -154 209 -154 353 0 167
76 278 228 335 110 42 264 47 382 14z m1229 -1 c159 -41 257 -154 268 -309 14
-175 -64 -339 -204 -436 -129 -88 -321 -91 -455 -7 -255 162 -294 554 -69 698
119 77 295 98 460 54z m-1965 -632 c9 -52 30 -126 46 -164 16 -39 28 -72 26
-74 -10 -10 -89 33 -115 63 -28 31 -51 88 -51 124 0 34 22 91 47 120 14 17 27
30 28 28 2 -2 10 -45 19 -97z m2410 67 c74 -100 40 -241 -71 -290 -25 -11 -46
-18 -48 -16 -2 2 12 49 31 105 19 56 37 131 41 167 3 36 10 66 14 66 4 0 19
-15 33 -32z"/>
<path d="M673 1945 c-83 -18 -156 -59 -204 -114 -41 -46 -55 -80 -45 -106 9
-25 23 -17 55 28 50 72 183 126 313 127 42 0 48 3 54 25 11 44 0 55 -58 54
-29 0 -81 -7 -115 -14z"/>
<path d="M613 1726 c-53 -17 -100 -47 -137 -85 -34 -35 -40 -37 -79 -16 -27
14 -28 14 -22 -8 8 -27 69 -87 89 -87 8 0 30 22 50 49 93 130 268 147 391 39
25 -22 48 -38 51 -36 9 10 -90 109 -128 129 -51 26 -159 34 -215 15z"/>
<path d="M667 1620 c-30 -24 -42 -66 -28 -103 13 -33 3 -34 -79 -13 -63 16
-74 14 -33 -7 89 -46 228 -43 343 9 73 33 73 41 0 15 -50 -18 -56 -18 -87 -3
-32 15 -33 17 -16 30 10 7 24 17 31 21 32 18 -29 71 -81 71 -13 0 -36 -9 -50
-20z"/>
<path d="M1764 1947 c-3 -8 -4 -26 -2 -39 2 -19 10 -23 43 -26 157 -10 251
-46 316 -122 46 -53 69 -59 69 -19 0 32 -55 104 -106 138 -69 45 -147 71 -235
78 -66 5 -79 3 -85 -10z"/>
<path d="M1819 1727 c-56 -21 -105 -54 -131 -90 -42 -55 -43 -63 -5 -30 86 75
190 100 285 69 38 -13 64 -32 102 -72 27 -31 50 -60 50 -65 0 -16 37 -10 64
12 32 25 60 75 47 84 -5 3 -12 1 -15 -4 -3 -5 -17 -12 -32 -15 -21 -6 -33 0
-65 33 -22 22 -60 49 -84 61 -55 27 -166 36 -216 17z"/>
<path d="M1840 1613 c-28 -23 -31 -31 -28 -70 2 -23 0 -43 -3 -43 -3 0 -28 7
-55 15 -65 20 -67 18 -14 -10 65 -34 166 -50 240 -37 53 10 135 40 128 47 -2
2 -29 -3 -60 -11 -54 -14 -58 -14 -78 6 -11 11 -24 20 -30 20 -19 0 -10 17 15
28 32 15 32 35 -1 61 -36 28 -76 26 -114 -6z"/>
<path d="M1345 1429 c27 -86 17 -157 -30 -204 -19 -19 -35 -37 -35 -40 0 -11
52 -4 80 10 38 20 68 60 76 101 8 44 -25 113 -67 138 l-32 19 8 -24z"/>
<path d="M935 951 c17 -18 53 -48 80 -67 28 -19 67 -47 89 -64 120 -93 289
-91 409 6 23 18 65 49 92 67 53 36 91 74 83 82 -2 3 -20 0 -39 -5 -18 -6 -82
-10 -140 -10 -108 0 -160 -10 -192 -39 -12 -10 -21 -12 -25 -5 -19 29 -63 39
-202 45 -80 3 -154 10 -165 14 -15 6 -13 1 10 -24z m365 -126 c52 0 118 3 145
7 l50 8 -40 -17 c-56 -23 -255 -24 -305 0 l-35 16 45 -7 c25 -4 88 -7 140 -7z"/>
</g>
</svg>
