<?xml version="1.0" standalone="no"?>
<!DOCTYPE svg PUBLIC "-//W3C//DTD SVG 20010904//EN"
 "http://www.w3.org/TR/2001/REC-SVG-20010904/DTD/svg10.dtd">
<svg version="1.0" xmlns="http://www.w3.org/2000/svg"
 width="260.000000pt" height="260.000000pt" viewBox="0 0 260.000000 260.000000"
 preserveAspectRatio="xMidYMid meet">
<metadata>
Created by potrace 1.11, written by Peter Selinger 2001-2013
</metadata>
<g transform="translate(0.000000,260.000000) scale(0.100000,-0.100000)"
fill="#000000" stroke="none">
<path d="M1145 2594 c-169 -26 -310 -70 -449 -142 -84 -43 -253 -159 -244
-167 2 -2 26 2 53 10 38 12 104 15 309 13 214 -2 279 1 361 16 156 28 355 101
494 183 44 26 44 26 20 35 -81 31 -203 49 -354 53 -88 2 -173 1 -190 -1z"/>
<path d="M1721 2498 c-26 -75 -115 -149 -257 -214 -41 -18 -74 -38 -74 -43 0
-14 119 -25 250 -24 85 1 147 8 234 28 127 28 231 68 222 84 -19 30 -209 139
-315 181 l-49 19 -11 -31z"/>
<path d="M438 2135 c-101 -20 -196 -74 -234 -133 -77 -117 -147 -288 -180
-442 -26 -120 -26 -400 0 -520 99 -457 414 -816 849 -969 49 -17 97 -31 107
-31 24 0 53 48 84 141 25 73 56 263 45 273 -3 3 -44 17 -92 31 -159 46 -290
123 -425 250 -145 136 -231 273 -285 453 l-26 83 50 -45 c70 -63 127 -94 216
-116 95 -24 172 -25 263 -4 162 37 315 180 378 356 23 64 26 90 28 208 l1 135
45 9 c36 7 53 5 90 -12 l45 -20 -8 -53 c-5 -30 -6 -81 -3 -114 31 -296 264
-525 534 -525 140 0 304 67 377 154 l26 31 -8 -35 c-39 -180 -130 -337 -279
-485 -199 -197 -422 -298 -688 -312 -65 -3 -118 -9 -118 -14 0 -13 153 -71
216 -82 l61 -11 12 -62 c13 -71 62 -200 86 -223 13 -14 24 -12 101 13 440 143
769 512 870 976 26 120 26 400 0 520 -26 118 -69 239 -125 346 -70 132 -94
159 -176 193 -92 38 -165 51 -294 51 -238 0 -416 -71 -511 -204 l-32 -44 -45
14 c-54 16 -144 18 -193 4 -32 -9 -37 -8 -54 17 -68 97 -194 171 -333 198 -95
18 -283 18 -375 0z m387 -120 c141 -37 214 -89 259 -184 77 -164 28 -385 -116
-517 -138 -127 -347 -145 -504 -44 -182 119 -262 364 -178 551 27 60 87 124
142 153 98 51 285 70 397 41z m1234 -1 c126 -31 208 -87 253 -171 96 -176 26
-434 -151 -561 -60 -44 -100 -60 -177 -72 -126 -20 -250 18 -344 106 -66 62
-96 108 -125 194 -66 194 -2 393 150 465 113 53 272 69 394 39z m-1946 -594
c8 -67 36 -175 58 -227 20 -46 14 -51 -30 -29 -97 51 -130 176 -70 269 13 20
27 37 30 37 3 0 9 -22 12 -50z m2441 -15 c39 -82 -2 -197 -86 -241 -50 -26
-57 -19 -33 34 23 49 49 144 60 225 7 45 8 47 25 32 10 -9 26 -32 34 -50z"/>
<path d="M755 1964 c-119 -15 -190 -42 -263 -101 -52 -43 -92 -115 -76 -140
18 -29 32 -25 59 16 47 76 136 117 278 128 67 5 81 9 94 29 16 25 10 64 -10
64 -7 0 -21 2 -32 4 -11 2 -33 2 -50 0z"/>
<path d="M599 1726 c-52 -18 -105 -53 -129 -84 -21 -26 -21 -26 -66 -10 -33
11 -44 12 -44 3 0 -26 47 -80 95 -108 108 -65 231 -83 350 -52 67 18 165 70
165 89 0 36 -83 123 -145 152 -58 27 -165 32 -226 10z m240 -70 c25 -11 60
-36 79 -55 l34 -33 -30 -18 c-56 -34 -103 -43 -136 -27 l-28 15 31 16 c36 19
36 19 15 51 -24 37 -82 52 -122 31 -40 -21 -55 -49 -50 -97 3 -32 0 -39 -14
-39 -29 0 -118 21 -123 30 -2 4 9 26 25 49 75 103 202 134 319 77z"/>
<path d="M1780 1961 c-28 -8 -37 -39 -21 -69 8 -15 26 -20 93 -25 46 -3 111
-16 145 -27 52 -18 73 -32 117 -82 57 -63 76 -67 76 -17 0 89 -148 198 -292
214 -29 3 -62 8 -73 9 -11 2 -31 1 -45 -3z"/>
<path d="M1793 1724 c-48 -17 -153 -123 -153 -154 0 -24 69 -65 153 -92 47
-15 82 -19 147 -16 76 4 96 9 173 46 88 42 127 81 127 125 0 16 -2 16 -30 2
-42 -22 -52 -19 -95 25 -72 73 -215 102 -322 64z m211 -73 c47 -25 106 -90
106 -117 0 -7 -22 -17 -50 -23 -62 -13 -80 -14 -80 -2 0 5 -9 13 -20 16 -27 9
-25 23 5 31 31 8 32 25 1 61 -19 22 -32 28 -66 28 -35 0 -47 -6 -72 -34 -24
-27 -29 -40 -26 -68 l4 -35 -35 7 c-40 8 -111 42 -111 53 0 5 12 20 28 34 96
88 210 106 316 49z"/>
<path d="M1335 1433 c36 -90 29 -149 -26 -204 -21 -21 -39 -42 -39 -45 0 -4
23 -4 52 -2 45 5 57 11 84 42 58 67 52 142 -15 199 -38 31 -67 36 -56 10z"/>
<path d="M910 976 c0 -30 230 -198 296 -217 62 -18 136 -18 198 0 66 19 296
187 296 217 0 17 3 17 -40 3 -19 -6 -89 -12 -155 -13 -101 -1 -126 -4 -160
-22 l-40 -21 -40 21 c-34 18 -59 21 -160 22 -66 1 -136 7 -155 13 -43 14 -40
14 -40 -3z m385 -165 c53 -11 5 -12 -55 -2 -34 6 -37 9 -15 9 17 1 48 -3 70
-7z m103 2 c-10 -2 -28 -2 -40 0 -13 2 -5 4 17 4 22 1 32 -1 23 -4z"/>
</g>
</svg>
