<svg version="1.1" id="toctocPlanner" xmlns="http://www.w3.org/2000/svg" xmlns:xlink="http://www.w3.org/1999/xlink" x="0px"
	 y="0px" width="864px" height="864px" viewBox="0 0 864 864" enable-background="new 0 0 864 864" xml:space="preserve">
<path id="bgcircle" fill="#F58B4A" d="M864,432.018c0,238.569-193.401,432.018-431.994,432.018C193.414,864.035,0,670.587,0,432.018
	C0,193.449,193.414,0,432.006,0C670.599,0,864,193.449,864,432.018z"/>
<polygon id="shadow_2_" fill="#CC6221" points="751.259,256.278 120.167,256 68.975,599.084 254.762,581.124 435.843,600.152 
	616.676,581.176 804.075,600.179 "/>
<path id="shadowpages" fill="#FFDEC2" d="M280.017,217.798L255.245,557.48L68.562,599.623l51.134-350.533L280.017,217.798
	 M591.55,217.798L435.783,249.09v350.533l180.539-42.143L591.55,217.798"/>
<path id="lightpages" fill="#FFFFFF" d="M280.017,217.798l155.766,31.292v350.533L255.245,557.48L280.017,217.798 M591.55,217.798
	l24.772,339.683l186.682,42.143L751.871,249.09L591.55,217.798"/>
<path id="markerbg" fill="#FFFFFF" d="M411.6,311.924c-42.833,0-77.68,34.858-77.68,77.704c0,17.75,11.474,43.191,35.078,77.778
	c16.669,24.425,33.078,43.993,33.769,44.814l8.835,10.508l8.833-10.51c0.69-0.82,17.093-20.389,33.756-44.814
	c23.595-34.586,35.064-60.027,35.064-77.776C489.255,346.782,454.419,311.924,411.6,311.924L411.6,311.924z M608.085,258.237
	c-39.238,0-71.161,31.933-71.161,71.184c0,16.226,10.408,39.364,31.818,70.735c15.059,22.063,29.885,39.747,30.509,40.489
	l8.836,10.511l8.834-10.513c0.623-0.741,15.444-18.425,30.495-40.489c21.401-31.371,31.805-54.508,31.805-70.733
	C679.221,290.17,647.31,258.237,608.085,258.237L608.085,258.237z M241.287,196.619c-35.207,0-63.85,28.627-63.85,63.815
	c0,14.543,9.212,35.108,28.164,62.869c13.252,19.411,26.306,34.971,26.855,35.624l8.834,10.502l8.831-10.505
	c0.549-0.653,13.594-16.213,26.837-35.625c18.938-27.76,28.145-48.323,28.145-62.865
	C305.103,225.247,276.475,196.619,241.287,196.619L241.287,196.619z"/>
<path id="marker" fill="#CC6221" d="M411.6,323.466c-36.541,0-66.139,29.609-66.139,66.162c0,36.505,66.139,115.165,66.139,115.165
	s66.114-78.66,66.114-115.165C477.714,353.075,448.117,323.466,411.6,323.466z M411.6,423.262
	c-18.265,0-33.093-14.781-33.093-33.092c0-18.288,14.828-33.046,33.093-33.046c18.252,0,33.069,14.758,33.069,33.046
	C444.669,408.481,429.852,423.262,411.6,423.262z M608.085,269.779c-32.905,0-59.619,26.69-59.619,59.642
	c0,32.881,59.619,103.797,59.619,103.797s59.595-70.916,59.595-103.797C667.68,296.469,640.966,269.779,608.085,269.779z
	 M608.085,359.713c-16.477,0-29.821-13.346-29.821-29.798c0-16.523,13.345-29.821,29.821-29.821c16.452,0,29.82,13.298,29.82,29.821
	C637.905,346.367,624.537,359.713,608.085,359.713z M241.287,208.159c-28.891,0-52.31,23.419-52.31,52.275
	c0,28.879,52.31,91.064,52.31,91.064s52.275-62.185,52.275-91.064C293.562,231.579,270.155,208.159,241.287,208.159z
	 M241.287,287.031c-14.451,0-26.161-11.674-26.161-26.149c0-14.452,11.71-26.149,26.161-26.149
	c14.428,0,26.138,11.698,26.138,26.149C267.425,275.357,255.715,287.031,241.287,287.031z M128.452,459.768
	c0,5.154-4.202,9.344-9.356,9.344c-5.167,0-9.356-4.189-9.356-9.344c0-5.178,4.189-9.392,9.356-9.392
	C124.25,450.376,128.452,454.59,128.452,459.768z M91.005,450.376c-0.33,0-0.647,0.023-0.965,0.048l-2.671,17.958
	c1.118,0.471,2.342,0.729,3.636,0.729c5.167,0,9.344-4.189,9.344-9.344C100.349,454.59,96.171,450.376,91.005,450.376z
	 M143.092,432.818c-5.178,0-9.368,4.19-9.368,9.368s4.189,9.367,9.368,9.367c5.155,0,9.356-4.189,9.356-9.367
	S148.247,432.818,143.092,432.818z M164.157,412.929c-5.166,0-9.368,4.213-9.368,9.368c0,5.178,4.202,9.368,9.368,9.368
	c5.167,0,9.356-4.189,9.356-9.368C173.513,417.143,169.324,412.929,164.157,412.929z M187.576,395.371
	c-5.178,0-9.391,4.213-9.391,9.344c0,5.202,4.213,9.415,9.391,9.415c5.155,0,9.333-4.213,9.333-9.415
	C196.909,399.584,192.731,395.371,187.576,395.371z M213.902,380.143c-5.167,0-9.379,4.213-9.379,9.368
	c0,5.178,4.213,9.391,9.379,9.391c5.154,0,9.356-4.213,9.356-9.391C223.258,384.355,219.057,380.143,213.902,380.143z
	 M241.393,369.622c-5.166,0-9.344,4.166-9.344,9.344c0,5.202,4.178,9.368,9.344,9.368c5.167,0,9.379-4.166,9.379-9.368
	C250.772,373.788,246.56,369.622,241.393,369.622z M267.731,374.306c-5.167,0-9.356,4.213-9.356,9.367
	c0,5.202,4.189,9.368,9.356,9.368s9.379-4.166,9.379-9.368C277.11,378.519,272.897,374.306,267.731,374.306z M289.396,394.782
	c-5.167,0-9.368,4.19-9.368,9.344c0,5.178,4.201,9.368,9.368,9.368s9.368-4.189,9.368-9.368
	C298.764,398.972,294.563,394.782,289.396,394.782z M306.378,417.59c-5.167,0-9.368,4.213-9.368,9.391
	c0,5.154,4.201,9.344,9.368,9.344c5.154,0,9.344-4.19,9.344-9.344C315.723,421.803,311.533,417.59,306.378,417.59z M325.679,439.243
	c-5.167,0-9.356,4.213-9.356,9.368c0,5.178,4.189,9.391,9.356,9.391c5.166,0,9.379-4.213,9.379-9.391
	C335.058,443.456,330.845,439.243,325.679,439.243z M345.591,461.485c-5.178,0-9.368,4.214-9.368,9.392s4.189,9.344,9.368,9.344
	c5.154,0,9.355-4.166,9.355-9.344S350.745,461.485,345.591,461.485z M365.479,481.986c-5.166,0-9.368,4.189-9.368,9.344
	c0,5.179,4.202,9.392,9.368,9.392c5.167,0,9.356-4.213,9.356-9.392C374.835,486.176,370.646,481.986,365.479,481.986z
	 M385.379,504.229c-5.166,0-9.344,4.189-9.344,9.367c0,5.179,4.178,9.345,9.344,9.345c5.155,0,9.368-4.166,9.368-9.345
	C394.747,508.418,390.534,504.229,385.379,504.229z M410.552,518.845c-5.178,0-9.379,4.189-9.379,9.368
	c0,5.178,4.201,9.344,9.379,9.344c5.154,0,9.344-4.166,9.344-9.344C419.896,523.034,415.707,518.845,410.552,518.845z
	 M438.644,511.831c-5.179,0-9.368,4.189-9.368,9.32c0,5.202,4.189,9.415,9.368,9.415c5.154,0,9.355-4.213,9.355-9.415
	C447.999,516.021,443.798,511.831,438.644,511.831z M465.569,496.603c-5.178,0-9.367,4.189-9.367,9.344
	c0,5.179,4.189,9.415,9.367,9.415s9.344-4.236,9.344-9.415C474.913,500.792,470.747,496.603,465.569,496.603z M488.988,479.044
	c-5.178,0-9.367,4.213-9.367,9.368c0,5.178,4.189,9.391,9.367,9.391c5.154,0,9.344-4.213,9.344-9.391
	C498.332,483.257,494.143,479.044,488.988,479.044z M516.503,464.404c-5.178,0-9.367,4.213-9.367,9.344
	c0,5.202,4.189,9.392,9.367,9.392c5.131,0,9.367-4.189,9.367-9.392C525.87,468.617,521.634,464.404,516.503,464.404z
	 M546.348,462.027c-5.178,0-9.368,4.213-9.368,9.367c0,5.179,4.19,9.415,9.368,9.415c5.131,0,9.367-4.236,9.367-9.415
	C555.715,466.24,551.479,462.027,546.348,462.027z M573.839,455.037c-5.155,0-9.368,4.166-9.368,9.367
	c0,5.178,4.213,9.344,9.368,9.344c5.178,0,9.367-4.166,9.367-9.344C583.206,459.203,579.017,455.037,573.839,455.037z
	 M602.647,448.775c-5.154,0-9.344,4.166-9.344,9.321c0,5.201,4.189,9.367,9.344,9.367c5.178,0,9.368-4.166,9.368-9.367
	C612.016,452.941,607.825,448.775,602.647,448.775z M631.645,443.48c-5.178,0-9.367,4.213-9.367,9.344
	c0,5.201,4.189,9.391,9.367,9.391c5.155,0,9.345-4.189,9.345-9.391C640.989,447.693,636.8,443.48,631.645,443.48z M658.854,432.488
	c-5.178,0-9.368,4.189-9.368,9.368c0,5.178,4.19,9.391,9.368,9.391s9.344-4.213,9.344-9.391
	C668.197,436.678,664.031,432.488,658.854,432.488z M684.32,418.46c-5.178,0-9.368,4.213-9.368,9.344
	c0,5.201,4.19,9.391,9.368,9.391c5.131,0,9.367-4.189,9.367-9.391C693.688,422.673,689.451,418.46,684.32,418.46z M711.976,408.811
	c-5.178,0-9.367,4.166-9.367,9.32c0,5.202,4.189,9.415,9.367,9.415c5.155,0,9.345-4.213,9.345-9.415
	C721.32,412.977,717.131,408.811,711.976,408.811z M737.419,392.994c-5.154,0-9.367,4.166-9.367,9.344
	c0,5.178,4.213,9.391,9.367,9.391c5.179,0,9.368-4.213,9.368-9.391C746.787,397.16,742.598,392.994,737.419,392.994z M757.19,370.61
	c-5.179,0-9.368,4.166-9.368,9.344c0,5.178,4.189,9.392,9.368,9.392c5.178,0,9.344-4.213,9.344-9.392
	C766.534,374.776,762.368,370.61,757.19,370.61z"/>
</svg>



<svg version="1.1" id="toctocGuide" xmlns="http://www.w3.org/2000/svg" xmlns:xlink="http://www.w3.org/1999/xlink" x="0px"
	 y="0px" width="864px" height="864px" viewBox="0 0 864 864" enable-background="new 0 0 864 864" xml:space="preserve">
<path id="circlebg" fill="#32BDD9" d="M864,432.012c0,238.565-193.411,432.012-432,432.012c-238.589,0-432-193.446-432-432.012
	S193.411,0,432,0C670.589,0,864,193.446,864,432.012z"/>
<path id="shadow_7_" fill="#097287" d="M101.042,399.579c0,0-4.919,102.877,15.393,142.466
	c13.816,27.632,36.21,53.074,65.631,74.893c29.974,22.219,67.032,40.507,109.28,53.287c42.695,12.921,90.297,20.146,140.571,20.146
	s97.888-7.226,140.619-20.146c42.26-12.78,79.354-31.068,109.339-53.287c29.456-21.818,51.886-47.261,65.714-74.893
	c18.323-39.589,15.369-132.628,15.369-132.628L101.042,399.579z"/>
<path id="compass" fill="#0B90AB" d="M762.017,373.959c-4.131-28.915-16.981-55.793-36.411-79.706
	c-19.041-23.396-44.472-44.061-74.445-61.112c-29.516-16.793-63.619-30.186-100.678-39.353c-36.74-9.085-76.682-14.075-118.4-14.075
	c-41.777,0-81.754,4.989-118.518,14.075c-37.093,9.167-71.209,22.56-100.736,39.353c-29.986,17.052-55.429,37.717-74.458,61.112
	c-19.441,23.913-32.292,50.875-36.423,79.79c-0.376,2.631-0.919,8.148-0.94,8.653c-0.409,5.061-0.544,10.056-0.405,15.062
	c-0.46,30.43,0.462,96.576,15.832,126.513c13.816,27.656,36.21,53.089,65.631,74.907c29.974,22.218,67.032,40.5,109.28,53.28
	c42.695,12.922,90.297,20.122,140.571,20.122s97.888-7.204,140.619-20.126c42.26-12.78,79.354-31.068,109.339-53.286
	c29.456-21.818,51.886-47.263,65.714-74.918c14.429-31.156,15.663-95.463,15.536-121.393
	C763.746,393.328,763.405,383.682,762.017,373.959z"/>
<path id="bgwhite" fill="#FFFFFF" d="M432.083,189.351 M432.083,187.927c-39.895,0-78.094,4.813-113.246,13.557
	c-35.446,8.814-68.044,21.689-96.229,37.823c-28.621,16.37-52.863,36.164-70.939,58.57c-18.453,22.866-30.562,48.532-34.316,76.082
	c-3.836,28.232,1.447,55.793,14.557,81.437c13.404,26.22,34.94,50.345,63.078,70.974c28.608,20.995,63.878,38.259,103.996,50.333
	c40.494,12.192,85.579,18.982,133.122,18.982s92.616-6.79,133.123-18.982c40.094-12.074,75.363-29.338,103.983-50.333
	c28.126-20.629,49.662-44.754,63.055-70.974c13.121-25.643,18.405-53.205,14.558-81.437c-3.755-27.549-15.876-53.216-34.328-76.082
	c-18.076-22.407-42.318-42.201-70.939-58.57c-28.185-16.134-60.782-29.009-96.229-37.823
	C510.177,192.74,471.977,187.927,432.083,187.927"/>
<path id="directionsdiagonal" fill="#32BDD9" d="M270.293,269.963l107.043,45.155l-6.661,19.37l-31.08,4.048L270.293,269.963
	 M527.275,410.5l-31.821,4.319l-5.896,20.982l120.318,52.439L527.275,410.5 M336.677,410.5l-82.366,77.741l120.095-52.286
	l-5.896-21.136L336.677,410.5 M593.872,269.963l-107.244,45.284l6.661,19.37l31.068,3.919L593.872,269.963"/>
<path id="directions2" fill="#C9F6FF" d="M483.191,340.843l261.008,32.975H432.306l17.076-11.074l33.81-21.63l-0.07-0.235
	L483.191,340.843 M432.094,373.818H120.189l259.125,33.928l17.794-11.345L432.094,373.818 M432.083,189.351l-51.227,151.504
	l-0.083,0.259l51.321,32.704L432.083,189.351 M432.094,374.1l0.012,219.572l52.592-185.903L432.094,374.1"/>
<path id="directions1" fill="#0B90AB" d="M478.943,374.242l0.212-0.283l0.235,0.283H478.943 M744.199,373.818H432.306l52.604,33.951
	L744.199,373.818 M380.855,340.855h-0.047l-260.619,32.963h311.905l-51.321-32.704L380.855,340.855 M432.083,189.351l0.012,184.467
	l17.288-11.074l33.81-21.63l-0.07-0.235L432.083,189.351 M432.094,374.1l-34.987,22.301l-17.794,11.345l-0.047,0.023l52.839,185.903
	L432.094,374.1"/>
</svg>
