<svg xmlns="http://www.w3.org/2000/svg" width="600" height="600" viewBox="0 0 600 600"><path fill="#C14E46" d="M600 300c0 165.67-134.3 300-300 300S0 465.67 0 300 134.3 0 300 0s300 134.33 300 300z"/><path fill="#860714" d="M70.17 277.48s-3.42 71.44 10.7 98.93c9.58 19.2 25.13 36.9 45.56 52.1 20.82 15.5 46.55 28.2 75.9 37 29.64 9 62.7 14 97.6 14 34.92 0 68-5 97.67-14 29.34-8.8 55.1-21.5 75.92-37 20.45-15.1 36.04-32.8 45.64-52 12.73-27.5 10.67-92.1 10.67-92.1l-459.66-6.9z"/><path fill="#A62826" d="M529.1 259.7c-2.86-20.08-11.8-38.74-25.3-55.35-13.2-16.24-30.86-30.6-51.67-42.44-20.5-11.6-44.18-20.9-69.92-27.3-25.5-6.3-53.2-9.7-82.2-9.7-28.9 0-56.7 3.5-82.2 9.8-25.7 6.4-49.4 15.7-69.9 27.4-20.8 11.86-38.5 26.2-51.7 42.45-13.5 16.6-22.4 36.7-25.3 56.77-.2 1.84-.2 6.9-.3 6.9h-.3s-3.4 70 10.7 97.46c9.6 19.24 25.1 36.18 45.58 51.3 20.8 15.46 46.55 27.8 75.9 36.68 29.64 9 62.7 13.8 97.6 13.8 34.9 0 68-5.1 97.67-14.04 29.37-8.9 55.1-21.64 75.95-37.07 20.45-15.14 36.04-32.8 45.64-52 10.7-23.1 10.92-72.26 10.74-87.43.15-5.6-.03-11.25-.84-16.96z"/><path fill="#FFF" d="M299.98 130.53c-27.7 0-54.24 3.33-78.65 9.4-24.6 6.12-47.24 15.06-66.82 26.26-19.8 11.3-36.7 25.1-49.2 40.6-12.8 15.8-21.2 33.7-23.8 52.8-2.6 19.6 1 38.7 10.1 56.5 9.3 18.2 24.3 34.93 43.8 49.3 19.9 14.54 44.4 26.52 72.2 34.9 28.1 8.47 59.5 13.2 92.5 13.2 33.08 0 64.38-4.73 92.5-13.2 27.87-8.38 52.35-20.36 72.2-34.94 19.58-14.33 34.5-31.1 43.8-49.3 9.1-17.8 12.8-36.95 10.1-56.55-2.6-19.14-11-36.95-23.8-52.82-12.55-15.6-29.4-29.35-49.26-40.7-19.6-11.2-42.2-20.16-66.8-26.3-24.4-6.06-50.96-9.4-78.66-9.4"/><path fill="#C14E46" d="M187.64 187.5l74.47 31.35-4.6 13.44-21.7 2.8-48.1-47.6M366.3 285l-22.12 2.9-4.08 14.67 83.4 36.4L366.3 285m-132.37 0l-57.36 54 83.56-36.4-4.1-14.7-22.1-2.87m178.43-97.6L338 218.83l4.5 13.56 21.7 2.7 48.13-47.6"/><path fill="#FFC4BF" d="M335.62 236.7l181.27 22.9H300.3l17.7-11.48 17.62-11.23-.05-.2.05-.1m-35.64 22.9H83.38L263.36 283l18.5-11.78 18.12-11.78m0-128.1l-35.6 105.2-.04.17 35.64 22.7v-128m0 128.3v152.5l36.7-129.1-36.7-23.33"/><path fill="#A62826" d="M516.9 259.6H300.3l36.37 23.58L516.9 259.6m-252.5-22.87l-.06.16 35.64 22.7H83.38l181-22.9M300 131.5l35.6 105.23.04.17L318 248.1l-18.02 11.48V131.5m0 128.3v152.47l-36.68-129.1.06-.02 18.5-11.78 18.12-11.58"/></svg>