<svg xmlns="http://www.w3.org/2000/svg" version="1.1">
	<defs>
	</defs>

	<symbol id="icon-toctocPlanner" viewBox="0 0 864 864"><path fill="#F58B4A" d="M864 432.02c0 238.57-193.4 432.02-432 432.02S0 670.6 0 432.02 193.4 0 432 0s432 193.45 432 432.02z"/><path fill="#CC6221" d="M751.26 256.28l-631.1-.28-51.2 343.08 185.8-17.96 181.08 19.03 180.84-18.97 187.4 19"/><path fill="#FFDEC2" d="M280.02 217.8l-24.77 339.68-186.7 42.14L119.7 249.1l160.32-31.3m311.53 0l-155.77 31.3v350.5l180.54-42.14-24.77-339.68"/><path fill="#FFF" d="M280.02 217.8l155.76 31.3v350.5l-180.53-42.14L280 217.8m311.53 0l24.77 339.68L803 599.62 751.87 249.1l-160.32-31.3"/><path fill="#FFF" d="M411.6 311.92c-42.83 0-77.68 34.86-77.68 77.7 0 17.76 11.47 43.2 35.08 77.8 16.67 24.4 33.08 43.98 33.77 44.8l8.83 10.5 8.84-10.5c.7-.82 17.1-20.4 33.75-44.82 23.6-34.58 35-60.02 35-77.77 0-42.85-34.9-77.7-77.7-77.7zm196.5-53.68c-39.25 0-71.18 31.93-71.18 71.18 0 16.23 10.4 39.37 31.82 70.74 15.06 22.06 29.9 39.74 30.5 40.5l8.85 10.5 8.8-10.52c.6-.74 15.4-18.42 30.5-40.5 21.4-31.36 31.8-54.5 31.8-70.72 0-39.25-31.9-71.18-71.2-71.18zm-366.8-61.62c-35.22 0-63.86 28.63-63.86 63.8 0 14.56 9.2 35.12 28.16 62.88 13.25 19.4 26.3 34.97 26.86 35.63l8.83 10.5 8.8-10.5c.5-.66 13.6-16.22 26.8-35.63 18.9-27.76 28.1-48.32 28.1-62.87 0-35.18-28.7-63.8-63.8-63.8z"/><path fill="#CC6221" d="M411.6 323.47c-36.54 0-66.14 29.6-66.14 66.16 0 36.5 66.14 115.16 66.14 115.16s66.1-78.7 66.1-115.2c0-36.6-29.58-66.2-66.1-66.2zm0 99.8c-18.27 0-33.1-14.8-33.1-33.1s14.84-33.05 33.1-33.05c18.25 0 33.07 14.76 33.07 33.05 0 18.3-14.82 33.1-33.07 33.1zm196.5-153.5c-32.92 0-59.63 26.7-59.63 59.65 0 32.88 59.6 103.8 59.6 103.8s59.6-70.92 59.6-103.8c0-32.95-26.7-59.64-59.58-59.64zm0 89.94c-16.5 0-29.84-13.3-29.84-29.7 0-16.5 13.35-29.8 29.83-29.8 16.4 0 29.8 13.3 29.8 29.8s-13.4 29.8-29.8 29.8zM241.3 208.2c-28.9 0-52.32 23.42-52.32 52.27 0 28.88 52.3 91.07 52.3 91.07s52.28-62.2 52.28-91.06c0-28.85-23.4-52.27-52.27-52.27zm0 78.87c-14.46 0-26.17-11.67-26.17-26.15 0-14.46 11.7-26.16 26.16-26.16 14.4 0 26.1 11.7 26.1 26.15 0 14.5-11.7 26.2-26.2 26.2zm-112.86 172.7c0 5.15-4.2 9.34-9.35 9.34-5.2 0-9.4-4.1-9.4-9.3 0-5.2 4.2-9.4 9.3-9.4s9.3 4.2 9.3 9.4zM91 450.37c-.33 0-.64.03-.96.05l-2.67 17.96c1.12.47 2.34.73 3.63.73 5.17 0 9.35-4.1 9.35-9.3 0-5.2-4.18-9.4-9.34-9.4zm52.1-17.55c-5.2 0-9.38 4.2-9.38 9.37s4.2 9.3 9.37 9.3c5.1 0 9.3-4.2 9.3-9.4s-4.2-9.4-9.4-9.4zm21.06-19.9c-5.17 0-9.37 4.22-9.37 9.38 0 5.17 4.2 9.36 9.3 9.36 5.1 0 9.3-4.18 9.3-9.36 0-5.16-4.2-9.37-9.4-9.37zm23.42-17.55c-5.18 0-9.4 4.2-9.4 9.34 0 5.3 4.22 9.5 9.4 9.5 5.15 0 9.33-4.2 9.33-9.4 0-5.1-4.1-9.3-9.3-9.3zm26.32-15.23c-5.17 0-9.38 4.22-9.38 9.37 0 5.2 4.22 9.4 9.38 9.4 5.16 0 9.36-4.2 9.36-9.4 0-5.1-4.2-9.3-9.36-9.3zm27.5-10.52c-5.17 0-9.35 4.17-9.35 9.35 0 5.2 4.18 9.36 9.34 9.36s9.3-4.16 9.3-9.36c0-5.18-4.2-9.35-9.4-9.35zm26.33 4.7c-5.17 0-9.36 4.2-9.36 9.35 0 5.2 4.2 9.37 9.36 9.37s9.38-4.17 9.38-9.37c0-5.15-4.2-9.36-9.3-9.36zm21.67 20.46c-5.17 0-9.37 4.2-9.37 9.35 0 5.17 4.2 9.36 9.37 9.36s9.36-4.2 9.36-9.4-4.2-9.4-9.36-9.4zm16.98 22.8c-5.17 0-9.37 4.22-9.37 9.4 0 5.15 4.2 9.34 9.4 9.34s9.4-4.2 9.4-9.34c0-5.18-4.2-9.4-9.3-9.4zm19.3 21.66c-5.17 0-9.36 4.22-9.36 9.37 0 5.2 4.2 9.4 9.36 9.4 5.16 0 9.38-4.2 9.38-9.4 0-5.1-4.2-9.3-9.38-9.3zm19.9 22.25c-5.17 0-9.36 4.2-9.36 9.3s4.2 9.3 9.37 9.3c5.1 0 9.3-4.2 9.3-9.4s-4.2-9.4-9.4-9.4zm19.9 20.5c-5.17 0-9.37 4.1-9.37 9.3 0 5.2 4.2 9.4 9.4 9.4s9.4-4.2 9.4-9.4-4.2-9.4-9.3-9.4zm19.9 22.2c-5.17 0-9.34 4.2-9.34 9.3 0 5.1 4.17 9.3 9.34 9.3 5.15 0 9.37-4.2 9.37-9.4s-4.22-9.4-9.37-9.4zm25.17 14.6c-5.18 0-9.38 4.2-9.38 9.3 0 5.2 4.2 9.3 9.38 9.3 5.16 0 9.35-4.2 9.35-9.4 0-5.17-4.2-9.36-9.35-9.36zm28.1-7c-5.18 0-9.37 4.2-9.37 9.3 0 5.2 4.2 9.4 9.36 9.4 5.16 0 9.36-4.2 9.36-9.4s-4.2-9.3-9.36-9.3zm26.92-15.3c-5.18 0-9.37 4.2-9.37 9.3 0 5.2 4.2 9.4 9.37 9.4s9.34-4.2 9.34-9.4-4.1-9.4-9.3-9.4zM489 479c-5.2 0-9.38 4.2-9.38 9.37 0 5.2 4.2 9.4 9.37 9.4 5.1 0 9.3-4.2 9.3-9.4 0-5.14-4.2-9.36-9.4-9.36zm27.5-14.64c-5.17 0-9.36 4.2-9.36 9.3 0 5.2 4.2 9.4 9.36 9.4 5.13 0 9.37-4.2 9.37-9.4 0-5.14-4.24-9.36-9.37-9.36zm29.85-2.4c-5.18 0-9.37 4.2-9.37 9.33s4.2 9.4 9.37 9.4c5.13 0 9.36-4.3 9.36-9.4 0-5.2-4.2-9.4-9.3-9.4zm27.5-7c-5.17 0-9.38 4.14-9.38 9.34 0 5.18 4.2 9.35 9.37 9.35 5.18 0 9.37-4.17 9.37-9.35 0-5.2-4.1-9.36-9.3-9.36zm28.8-6.28c-5.16 0-9.35 4.15-9.35 9.3 0 5.2 4.2 9.36 9.35 9.36 5.18 0 9.37-4.16 9.37-9.36 0-5.16-4.2-9.33-9.37-9.33zm29-5.3c-5.18 0-9.37 4.2-9.37 9.33 0 5.2 4.2 9.4 9.37 9.4 5.15 0 9.34-4.2 9.34-9.4 0-5.1-4.2-9.3-9.4-9.3zm27.2-11c-5.17 0-9.36 4.2-9.36 9.37 0 5.18 4.1 9.4 9.3 9.4s9.3-4.22 9.3-9.4c0-5.17-4.2-9.36-9.4-9.36zm25.47-14.03c-5.18 0-9.37 4.2-9.37 9.35 0 5.2 4.2 9.4 9.37 9.4 5.13 0 9.37-4.2 9.37-9.4 0-5.14-4.3-9.35-9.4-9.35zm27.66-9.64c-5.18 0-9.37 4.2-9.37 9.4s4.2 9.4 9.4 9.4 9.4-4.2 9.4-9.4c0-5.1-4.2-9.3-9.3-9.3zm25.44-15.8c-5.15 0-9.37 4.2-9.37 9.4s4.22 9.4 9.37 9.4c5.18 0 9.37-4.2 9.37-9.4 0-5.1-4.2-9.3-9.4-9.3zm19.77-22.4c-5.2 0-9.4 4.2-9.4 9.4s4.2 9.4 9.3 9.4c5.1 0 9.3-4.2 9.3-9.4 0-5.1-4.2-9.3-9.4-9.3z"/>
	</symbol>



	<symbol id="icon-toctocGuide" viewBox="0 0 864 864"><path fill="#32BDD9" d="M864 432c0 238.58-193.4 432.02-432 432.02S0 670.58 0 432.02 193.4 0 432 0s432 193.45 432 432z"/><path fill="#097287" d="M101.04 399.58s-4.92 102.88 15.4 142.47c13.8 27.63 36.2 53.07 65.63 74.9 29.97 22.2 67.03 40.5 109.28 53.28 42.7 12.92 90.3 20.14 140.57 20.14s97.9-7.22 140.62-20.14c42.26-12.78 79.35-31.07 109.34-53.3 29.45-21.8 51.88-47.25 65.7-74.88 18.33-39.6 15.38-132.63 15.38-132.63l-661.92-9.84z"/><path fill="#0B90AB" d="M762.02 373.96c-4.13-28.92-16.98-55.8-36.4-79.7-19.06-23.4-44.5-44.07-74.46-61.12-29.5-16.8-63.62-30.18-100.68-39.35-36.74-9.1-76.68-14.1-118.4-14.1-41.77 0-81.75 5-118.5 14.1-37.1 9.1-71.22 22.5-100.75 39.3-30 17-55.43 37.7-74.46 61.1-19.44 23.9-32.3 50.9-36.42 79.8-.38 2.6-.92 8.1-.94 8.6-.4 5-.5 10-.4 15-.4 30.4.5 96.5 15.9 126.5 13.8 27.6 36.2 53.1 65.7 74.9 30 22.2 67.1 40.5 109.3 53.2 42.7 12.9 90.3 20.1 140.6 20.1s97.9-7.2 140.7-20.2c42.3-12.75 79.4-31 109.3-53.25 29.5-21.8 51.9-47.26 65.7-74.9 14.5-31.16 15.7-95.46 15.6-121.4.6-9.5.3-19.17-1.1-28.9z"/><path fill="#FFF" d="M432.08 187.93c-39.9 0-78.1 4.8-113.24 13.55-35.45 8.82-68.05 21.7-96.23 37.83-28.6 16.4-52.8 36.2-70.9 58.6-18.4 22.9-30.5 48.6-34.3 76.1-3.8 28.3 1.5 55.8 14.6 81.5 13.4 26.3 35 50.4 63.1 71 28.6 21 63.9 38.3 104 50.4 40.5 12.2 85.6 19 133.2 19s92.6-6.8 133.2-19c40.1-12 75.4-29.3 104-50.3 28.2-20.6 49.7-44.7 63.1-70.9 13.2-25.6 18.4-53.2 14.6-81.4-3.7-27.5-15.8-53.2-34.3-76-18.1-22.4-42.3-42.2-70.9-58.6-28.2-16.1-60.8-29-96.22-37.8-35.1-8.74-73.3-13.54-113.2-13.54"/><path fill="#32BDD9" d="M270.3 269.96l107.04 45.16-6.66 19.37-31.08 4-69.3-68.6m256.96 140.6l-31.82 4.3-5.9 21 120.33 52.4-82.6-77.8m-190.6 0l-82.37 77.8 120.1-52.3-5.9-21.1-31.82-4.3m257.2-140.6l-107.25 45.3 6.66 19.3 31 3.9 69.5-68.6"/><path fill="#C9F6FF" d="M483.2 340.84l261 32.98H432.3l17.08-11.08 33.8-21.63-.06-.2h.07m-51.1 33H120.2l259.1 34 17.8-11.3 35-22.5m-.02-184.4L380.86 341l-.1.25 51.33 32.7-.1-184.5m0 184.75v219.57l52.6-185.9L432 374.2"/><path fill="#0B90AB" d="M478.94 374.24l.2-.28.25.28h-.5m265.2-.42H432.3l52.6 33.95 259.3-33.95m-363.35-32.96h-.04L120.2 373.8h311.9l-51.33-32.7.1-.26m51.2-151.5l.03 184.46 17.28-11.08 33.8-21.63-.06-.3-51.04-151.6m0 184.7l-34.97 22.3-17.8 11.3 52.9 185.9V374.1"/>
	</symbol>

</svg>