<svg xmlns="http://www.w3.org/2000/svg" version="1.1">
	<defs>
	</defs>
		
	<symbol id="bonne-mere" viewBox="0 0 864 864">
  	<path fill="currentColor" d="M827 289.6v2c0 10-7 19-12 24v486c0 7-5 12-12 12H59c-7 0-12-5-12-12v-276c0-5 3-9 7-11l11-5v-104c0-22 7-60 26-93s45-52 76-56v-7c0-7 5-12 12-12s12 5 12 12v7c31 4 57 23 76 56s26 70 26 93v48h330v-138c-5-5-12-14-12-24v-3c0-8-1-23 2-38 5-27 19-35 29-37 9-2 18 1 25 6 1 2 3 3 4 5v-29c0-6 5-11 11-12-1-4-3-9-4-14-2-4-1-8 1-11s5-4 8-5l4-41c-2-4-4-14-5-22 0-10-1-16 4-23 1-2 2-3 3-4-2-3-3-7-3-12 0-16 13-30 29-30s29 14 29 30c0 5-1 9-3 12 1 1 2 2 3 4 5 7 4 13 4 23-1 8-3 18-5 22l4 41c3 1 6 2 8 5s3 7 1 11c-1 5-3 10-4 14 6 1 11 6 11 12v28l3-3c5-4 13-9 25-7 33 5 32 58 32 76zm-566 308v192h26v-257l-108-54-108 54v257h26v-192c0-45 37-82 82-82s82 37 82 82zm-172-100l85-43c3-1 7-1 10 0l85 43v-81l-24-36-16 24c-2 3-4 4-7 5-3 0-6-1-8-4l-35-39-35 39c-2 3-5 4-8 4-3-1-5-2-7-5l-16-24-24 36v81zm3-120l13-19c2-3 5-5 8-5s6 2 8 5l17 25 34-38c2-2 4-4 7-4s5 2 7 4l34 38 17-25c2-3 5-4 8-4s6 1 8 4l13 19c-3-16-9-35-19-53-12-20-34-45-68-45s-56 25-68 45c-10 18-16 37-19 53zm31 46v18c0 5-5 10-10 10s-10-5-10-10v-18c0-5 5-10 10-10s10 5 10 10zm118 174c0-34-28-62-62-62s-62 28-62 62v192h124v-192zm-74 42v42c0 7-5 12-12 12s-12-5-12-12v-42c0-7 5-12 12-12s12 5 12 12zm12-24c-13 0-24-11-24-24s11-24 24-24 24 11 24 24-11 24-24 24zm12-186c0 7-5 12-12 12s-12-5-12-12v-18c0-7 5-12 12-12s12 5 12 12v18zm24 210v42c0 7-5 12-12 12s-12-5-12-12v-42c0-7 5-12 12-12s12 5 12 12zm20-198v-18c0-5 5-10 10-10s10 5 10 10v18c0 5-5 10-10 10s-10-5-10-10zm58 36v32l11 5c4 2 7 6 7 11v30h312v-78h-26v42c0 5-5 10-10 10s-10-5-10-10v-42h-22v42c0 5-5 10-10 10s-10-5-10-10v-42h-22v42c0 5-5 10-10 10s-10-5-10-10v-42h-22v42c0 5-5 10-10 10s-10-5-10-10v-42h-22v42c0 5-5 10-10 10s-10-5-10-10v-42h-22v42c0 5-5 10-10 10s-10-5-10-10v-42h-22v42c0 5-5 10-10 10s-10-5-10-10v-42h-32zm230 154c12-19 32-32 56-32 17 0 32 7 44 17v-37H311v37c12-10 27-17 44-17 24 0 44 13 56 32 12-19 32-32 56-32s44 13 56 32zm-122 34c0-26-20-46-46-46-20 0-38 13-44 31v139h90v-124zm-34 10v36c0 7-5 12-12 12s-12-5-12-12v-36c0-7 5-12 12-12s12 5 12 12zm146-10c0-26-20-46-46-46s-46 20-46 46v124h92v-124zm-34 10v36c0 7-5 12-12 12s-12-5-12-12v-36c0-7 5-12 12-12s12 5 12 12zm54 114h90v-139c-6-18-24-31-44-31-26 0-46 20-46 46v124zm34-78v-36c0-7 6-12 12-12 7 0 12 5 12 12v36c0 7-5 12-12 12-6 0-12-5-12-12zm68-424v4c0 2 4 6 7 8h155c3-3 6-6 6-8v-2c0-7 0-21-2-34-2-10-6-18-9-18-4-1-6 0-6 1-3 2-6 9-6 29 0 5-3 9-7 11-2 1-4 1-6 1h-96c-1 0-3 0-4-1-5-1-8-6-8-11 0-14-3-26-8-29 0-1-1-2-5-1-3 0-12 6-11 50zm156 502v-470H647v470h20v-54c0-28 24-52 52-52s52 24 52 52v54h20zm-102-432v48c0 7-5 12-12 12s-12-5-12-12v-48c0-7 5-12 12-12s12 5 12 12zm62 378c0-18-14-32-32-32s-32 14-32 32v54h64v-54zm-56-480h48v-50c-7-3-12-9-12-16 0-3 1-7 2-12h-28c1 5 2 9 2 12 0 7-5 13-12 16v50zm10-167c0 7 3 17 4 20 1 1 1 3 1 4l-4 41h26l-4-41c0-1 0-3 1-4 1-3 4-13 4-20 1-8 0-9-1-11l-5-4c-3-1-5-4-5-7-1-4 1-7 4-9 1-1 4-3 4-6 0-5-5-11-11-11s-11 6-11 11c0 3 4 6 4 6 3 2 5 5 4 9 0 3-2 6-5 7-2 1-4 3-5 4-1 2-2 3-1 11zm26 269v48c0 7-5 12-12 12s-12-5-12-12v-48c0-7 5-12 12-12s12 5 12 12zm0 120v42c0 7-5 12-12 12s-12-5-12-12v-42c0-7 5-12 12-12s12 5 12 12zm0 108v42c0 7-5 12-12 12s-12-5-12-12v-42c0-7 5-12 12-12s12 5 12 12zm42-228v48c0 7-5 12-12 12s-12-5-12-12v-48c0-7 5-12 12-12s12 5 12 12z"/>
</symbol>

<symbol id="vieux-port" viewBox="0 0 864 864">
  <path fill="currentColor" d="M204 475.6c5 0 10 4 10 10l-1 24 15-14v-1h1c1-2 3-2 6-2l103 2c5 0 10 4 10 10-1 5-5 9-10 9l-94-2v59l-1 1v2h-1v1h-1l-2 2h-2v1h-33c-3 0-6-1-8-3-1-2-2-4-2-7v-73l-173-6v83c0 5-4 9-9 9l-12 1v-19h2v-84c0-2 1-5 3-6 2-2 4-3 7-3l192 6zm107 113c6 0 10 4 10 10 1 5-4 9-9 10l-312 11v-19l311-12zm-203 81c5 0 8 3 8 8s-3 9-8 9H0v-16c9 0 13 0 18-1h90zm70 42c0 5-4 9-9 9-9 0-13 1-17 1h-17c-8 0-12 1-16 1s-9 1-18 1H67c-9 0-13-1-18-1-4-1-7-1-15-1H0v-19h34c9 0 13 0 18 1 4 0 8 1 15 1h34c8 0 12-1 16-1 4-1 9-1 18-1h16c4-1 9-1 18-1 5 0 9 4 9 10zm27 30c4 0 7 1 14 1h15c4-1 8-1 16-1 6 0 11 5 11 11s-5 11-11 11h-15c-4 0-8 1-16 1-9 0-14-1-18-2s-7-1-14-1c-6 0-10 0-13 1-4 0-9 1-18 1-7 0-11 0-15 1h-16c-9 0-14-1-18-2-3-1-7-1-13-1H79c-4 0-8 1-17 1-6 0-10 0-13 1-4 1-9 1-18 1H16c-4 1-8 1-16 1v-22h31c7 0 10-1 14-1 4-1 9-2 17-2h15c4-1 9-1 17-1 9 0 13 1 18 2 3 1 6 1 13 1h31c7 0 10-1 14-2 4 0 9-1 17-1 9 0 14 1 18 2zm149 48c4 1 7 2 13 2 7 0 12 5 12 12s-5 12-12 12c-10 0-16-2-21-4-3-1-6-2-12-2-7 0-10 1-14 2-5 1-10 2-20 2s-15-1-19-2-7-2-14-2c-8 0-11 1-15 1-4 1-9 2-18 2h-16c-4 1-9 1-18 1s-13 0-17-1h-32c-4 1-9 1-18 1s-15-1-19-2-7-2-14-2-10 1-14 1c-5 1-10 3-19 3H51c-4 0-9 1-18 1-10 0-15-2-20-3-3-1-6-2-13-2v-24c10 0 16 1 20 3 4 1 7 2 13 2 8 0 12-1 16-1h18c7 0 10-1 14-2s9-2 19-2 15 1 20 2c4 1 7 2 13 2h16c5-1 9-1 18-1h17c4 1 8 1 16 1s12 0 16-1h18c7 0 10-1 14-2 5 0 10-1 19-1 10 0 15 1 20 3 3 1 6 1 13 1s10 0 14-1c5-2 10-3 20-3s16 2 20 4zm-294-284c2 0 3 2 3 3v17c0 2-1 3-3 3H45c-1 0-3-1-3-3v-17c0-2 2-3 3-3h15zm0 36c2 0 3 1 3 2v17c0 2-1 3-3 3H45c-1 0-3-1-3-3v-17c0-1 2-2 3-2h15zm201-201l7 19v39l3 7 1-1c3-2 7-3 11-1l18 8 32 4c5 0 9 5 8 11 0 5-5 9-10 8l-34-4c-1 0-2-1-2-1l-15-6-6 6c-2 2-6 3-9 2s-5-3-6-6l-9-21c-1-1-1-3-1-4v-1h-4l-15 1h-1c-3 0-7-3-8-6 0 1-1 1-1 2v26c-1 4-2 7-5 8-3 2-7 2-10 1l-5-3v1c-2 2-5 4-8 4l-29 1-17 9c-2 1-3 2-5 2h-14l-12 6-1 1-29 12c-2 0-3 1-4 1-4 0-7-3-9-6-2-5 0-11 5-13l29-12 14-7c2-1 3-2 5-2h13l17-9c2-1 3-2 5-2h26l3-4c2-4 8-6 12-4v-13c1-5 5-23 19-23 7 0 12 4 15 9v-17c0-1 0-2 1-3l7-19c1-4 5-6 9-6s7 2 9 6zm-162 166c1 0 3 1 3 3v16c0 2-2 3-3 3H84c-2 0-3-1-3-3v-16c0-2 1-3 3-3h15zm0 34c2 0 3 2 3 3v17c0 1-1 2-3 2H84c-1 0-2-1-2-2v-17c0-1 1-3 2-3h15zm38-33c2 0 3 1 3 2v17c0 1-1 3-3 3h-14c-2 0-3-2-3-3v-17c0-1 1-2 3-2h14zm0 33c2 0 3 2 3 3v16c0 2-1 3-3 3h-15c-1 0-2-1-2-3v-16c0-1 1-3 2-3h15zm38-32c2 0 3 1 3 2v16c0 1-1 3-3 3h-15c-1 0-3-2-3-3v-16c0-1 2-3 3-3l15 1zm0 32c2 0 3 2 3 3v16c0 1-1 2-3 2h-15c-1 0-3-1-3-2v-16c0-1 2-3 3-3h15zm193-255l12 306c5 4 28 10 49 12h36c5 0 10 5 10 10-1 5-5 10-10 10l-37-1h-1s-13-1-28-4c-13-3-22-6-28-10-16 16-40 37-41 38l-5 3-58 14 1 1 61-1 37 49-83-5c-3 0-6-2-7-4l-24-29-14-7c-3-1-6-5-5-9 0-4 3-8 7-9l79-19c6-5 29-26 42-39l-12-306c0-5 4-9 9-10 5 0 10 4 10 10zm-93 239c2 0 3 0 3 2v12c0 1-1 2-3 2h-12c-2 0-3-1-3-2v-13c0-1 1-1 3-1h12zm0 26c2 0 3 1 3 2v13c0 1-1 1-3 1l-12 1c-2 0-3-1-3-2v-13c0-1 1-2 3-2h12zm32-26c1 0 2 1 2 2v12c0 1-1 2-2 2h-13c-1 0-2-1-2-2v-12c0-1 1-2 2-2h13zm0 26c1 0 2 1 2 2v12c0 1-1 2-2 2h-13c-1 0-2-1-2-2v-12c0-1 1-2 2-2h13zm29-26c2 0 3 1 3 2v12c0 1-1 2-3 2h-12c-1 0-2-1-2-2v-12c0-1 1-2 2-2h12zm176-360l5 444 51 1 33 4c6 0 10 5 9 11 0 6-5 10-11 9l-33-3-56-2-8 6-19 17c-2 1-4 2-6 2l-31 3-20 11h-2l-35 11 1 2h41l31 51-48-2h-7c-4 0-6-2-8-4l-36-47c-2-3-2-6-1-9s3-6 7-7l48-14 22-11c1-1 2-1 4-1l29-3 16-14c1 0 1 0 1-1l7-5-4-449c0-5 4-10 10-10s10 5 10 10zm-36 303c4 0 8 4 8 8 0 5-4 9-9 8l-62-2v83c0 5-4 8-9 8-4 0-8-3-8-8v-92c0-2 1-4 2-6 2-2 4-2 7-2l71 3zm-32 27c1 0 2 1 2 2v12c0 1-1 2-2 2h-13c-2 0-3-1-3-2v-13c0-1 1-2 3-2l13 1zm0 27c1 0 2 1 2 2v13c0 1-1 2-2 2h-13c-2 0-3-1-3-2v-13c0-1 1-2 3-2h13zm28-26c2 0 3 0 3 1v13c0 1-1 2-3 2l-12-1c-1 0-2 0-2-1v-13c0-1 1-2 2-2l12 1zm153-407l24 540 15-8c1-1 3-2 4-2l86-9c6 0 12 4 13 11 0 6-4 11-11 12l-83 9-57 32c-2 1-4 1-5 1l-55 4-68 15 26 42 37 1h14l18 23h-40v-1h-36c-4 0-8-2-10-6l-37-62c-2-3-2-7-1-10 2-3 5-6 8-7l43-8 43-9 54-4 20-11-24-552c-1-6 4-12 10-12 7 0 12 5 12 11zm-32 393c4 0 8 4 8 8v77c0 5-4 8-8 8-5 0-9-3-9-8v-69l-44-1c-5 0-9-4-8-9 0-5 4-8 8-8l53 2zm-24 28c1 0 2 0 2 1v13c0 1-1 1-2 1h-12c-1 0-2-1-2-2v-12c0-1 1-2 2-2l12 1zm0 26c1 0 2 1 2 2v12c0 1-1 2-2 2h-12c-1 0-2-1-2-2v-12c0-1 1-2 2-2h12zm222-506l12 640 14-1 47-4v24l-45 4h-1l-92 5-44 11-71 15 3 4 250-1v74c-110-4-227-10-228-11-3 0-7-2-9-4l-46-62c-3-4-3-8-2-12 2-4 5-6 9-7l89-19 44-11c1-1 2-1 2-1l56-3-12-641c0-6 5-12 11-12 7 0 13 5 13 12zm-84 393c2 0 4 1 5 2l30 28c2 1 3 4 3 6v108c0 5-4 9-9 9-4 0-8-4-8-9v-12h-37c-3 0-7-3-7-7s3-7 7-7l37-1v-15l-38-1-8 1c-3 0-6-2-7-6s2-7 6-8l8-1h39v-16l-38-1-6 1c-4 1-8-1-9-5s1-8 5-9l8-2h2l38 2v-14l-37-3-7 2c-3 2-8 0-9-4s1-8 5-9l7-3h3l24 1-11-10-12-1-5 2-4 1c-3 0-6-2-7-5-2-5 0-10 4-11l7-3c1-1 3-1 4-1l17 1zm157 198v25c-1 0-2-1-3-1l-38-10c-6-2-10-9-8-15s8-10 15-8l34 9z"/>
</symbol>

</svg>