<svg xmlns="http://www.w3.org/2000/svg" width="100" height="100" viewBox="0 0 100 100"><linearGradient id="a" gradientUnits="userSpaceOnUse" x1="49.26" y1="26.49" x2="49.26" y2="100"><stop offset="0" stop-color="#2EBFCB"/><stop offset=".37" stop-color="#2CBCC9"/><stop offset=".61" stop-color="#23B4C3"/><stop offset=".81" stop-color="#16A5B9"/><stop offset=".98" stop-color="#0290AA"/><stop offset="1" stop-color="#008EA8"/></linearGradient><path fill="url(#a)" d="M75.9 26.5c1.92 2.43-12.52 3.64-26.88 3.62v.07c-14.2-.02-28.3-1.23-26.4-3.64-5.06 5.96-8.1 13.63-8.1 22 0 1.8.17 3.6.5 5.4.3 1.82.8 3.66 1.4 5.5 1.93 5.8 5.2 11.62 9.16 17.1 1.46 2.03 3.02 4 4.64 5.92C32.5 85.42 41.62 94.7 49.26 100c7.27-4.97 16.53-14.33 19.04-17.6 1.62-1.9 3.18-3.88 4.64-5.9 3.97-5.5 7.23-11.3 9.16-17.12.6-1.83 1.1-3.67 1.4-5.48.33-1.82.5-3.62.5-5.4 0-8.38-3.04-16.05-8.1-22z"/><linearGradient id="b" gradientUnits="userSpaceOnUse" x1="49.2" y1="82.25" x2="49.2" y2="19.04"><stop offset="0" stop-color="#FAB881"/><stop offset=".39" stop-color="#FAB67F"/><stop offset=".61" stop-color="#F9AF76"/><stop offset=".79" stop-color="#F8A468"/><stop offset=".94" stop-color="#F69455"/><stop offset="1" stop-color="#F58C4B"/></linearGradient><path fill="url(#b)" d="M73.8 46.67c2.4-18-8.55-27.63-24.05-27.63-24.6 0-26.4 17.87-25.6 28-.73.7-1.1 1.76-1.1 2.86v.3c.14 1.9 1.64 3.45 3.54 3.65-.05-.1 3.93 3.86 4.36 4.48 3.42 4.76 8.67 8.47 14.24 9.6-.74 8.4-3.1 10.72-7.9 10.72 0 0 1.5 3.6 12 3.6s12-3.6 12-3.6c-4.37 0-6.72-1.93-7.67-8.57l-.24-2.16c1.02-.2 2.02-.5 3-.86 3.76-1.37 7.1-3.8 9.73-6.96l5.55-6.2c1.93-.2 3.5-1.96 3.65-3.9l.02-.3c0-1.32-.55-2.3-1.56-3.03z"/><path fill="#F58C4B" d="M53.57 70.12s-.17-1.25-.24-2.16c0 0-2.18.55-5.67.34 0 0 2.5 1.72 5.9 1.82z"/><path fill="#C14E47" d="M49.24 60.46c-2.33 0-4.06-.48-5.3-1.08.3.3.83.8 1.55 1.28.95.63 2.23 1.2 3.75 1.2 1.62 0 2.9-.6 3.82-1.2.8-.53 1.3-1.1 1.45-1.27-1.26.58-2.97 1.05-5.28 1.06z"/><path fill="#FFF" d="M49.47 84.9c5.8 0 12.33-.67 18.98-2.68l-.15.2c-.6.78-1.64 1.95-2.93 3.32l-.06.04s0 .02-.02.03c-5.56 1.3-10.93 1.77-15.8 1.77-6.58 0-12.24-.85-16.2-1.68 0-.03-.03-.03-.04-.04-1.34-1.4-2.37-2.57-2.97-3.33 0-.03-.03-.06-.07-.1 1 .26 2.34.6 3.98.93 3.8.78 9.13 1.55 15.3 1.55zm13.6 3.2c-4.9 1.05-9.7 1.45-14.05 1.45l-.04-.03c-5.16 0-9.73-.54-13.3-1.18 1.02 1.02 2.13 2.1 3.3 3.2 2.96.37 6.34.63 10 .63 3.37 0 7-.23 10.72-.8 1.18-1.1 2.33-2.22 3.38-3.27zm-14.3 6.03c-2.63 0-5.1-.15-7.37-.37 1.1 1 2.25 1.98 3.4 2.92h.05c1.26.07 2.56.1 3.9.1 1.6 0 3.27-.04 4.96-.15H53.8c1.13-.96 2.28-1.95 3.4-2.96-.97.15-5.76.46-8.44.46zM32.26 45.9s5.14 2.2 9.97-.73c0 0-5.52-7.7-9.98.73zm33.9 0s-5.13 2.2-9.96-.73c0 0 5.53-7.7 9.98.73z"/><path fill="#870815" d="M36.76 41.52c4.16-.1 5.5 3.65 5.5 3.65s-1.9-2.92-5.32-2.7c-3.43.2-4.67 3.43-4.67 3.43-.02 0-.04 0-.06-.02-1.97-.5-2.23-2.4-2.23-2.4.85.8 1.85.6 1.85.6s1.42-2.5 4.93-2.56zm13.14 6s1.67 2.84-.66 4.84c-.22.2-.45.36-.73.52.25.06.5.1.73.1 1.23-.02 2.33-.85 2.66-2.1.37-1.48-.52-3-2-3.36zm16.33-1.63c1.97-.52 2.23-2.4 2.23-2.4-.85.8-1.85.58-1.85.58s-1.4-2.48-4.92-2.55c-4.15-.1-5.5 3.65-5.5 3.65s1.9-2.92 5.32-2.7c3.44.2 4.67 3.43 4.67 3.43h.06zm-15.3 11.76s-1.18.23-1.6.92c-.03.06-.06.12-.08.2l-.1-.2c-.4-.7-1.58-.92-1.58-.92-2.4-.6-2.8.56-6.43-.56 0 0 .28.47.94 1.05.44.4 1.06.83 1.87 1.23 1.25.6 2.98 1.08 5.32 1.08 2.3 0 4.02-.47 5.27-1.06.84-.4 1.47-.85 1.92-1.24.66-.58.94-1.05.94-1.05-3.64 1.14-4.03-.03-6.44.58l-.04-.02z"/><path fill="#3E0000" d="M31.92 41.64c-.5 1-1.2.07-.82-.7 1.53-3.04 5.16-4.1 8.32-3.94.78.04.45 1.68-.2 1.64-2.57-.13-6.08.57-7.3 3zm5.52 1.9c-1.03-.07-1.93.7-2 1.72-.05.56.16 1.08.54 1.45.23.02.47.03.7.02.82-.03 1.52-.1 2.12-.18l.18-.27-1.3-.64 1.43-.7c-.2-.73-.85-1.28-1.66-1.34v-.05zm-7.98-29.23c-.32.38-.6.75-.86 1.15-1.04-1.12-1.97-3.25-1.3-7.3 0 0 .53 1.7 1.36 2.9-.03-.78.05-1.54.22-2.24C30.2 3.5 35.84-2.43 43.4 1.04c0 0 9.57-2.02 10.02 5-3.42-.17-7 .2-10.52 1.3-5.7 1.76-9.8 3.6-12.4 5.9-.37.36-.72.7-1.04 1.08zm37.06 27.34c-1.22-2.42-4.73-3.13-7.32-3-.63.05-.97-1.6-.2-1.63 3.17-.16 6.8.9 8.34 3.95.4.77-.3 1.7-.82.7zm13.58-.07c-.63 3.2-2.27 6.08-4.77 8.53l.02-.3c0-1.32-.66-2.5-1.67-3.22-.06 1.04-.32 3.4-1.4 6-.16.4-.34.8-.53 1.2-1.13 2.24-2.93 4.55-5.77 6.28L66 60c.07-.07.22-.25.43-.52.67-.86 1.9-2.68 2.87-5.15.12-.3.23-.6.34-.94.3-.88.53-1.8.7-2.8-.56.7-1.18 1.36-1.87 1.9-1.17.92-2.5 1.57-3.96 1.84-.85.24-1.76.35-2.7.35-2.97-.03-5.67-1.35-7.63-3.48-1.94-2.12-3.16-5.08-3.13-8.33 0-.88.1-1.7.28-2.46-.84-.47-1.53-.65-2.1-.7-.14-.02-.27-.02-.4-.02-.8 0-1.43.28-1.78.48.22.84.34 1.74.34 2.7.03 3.27-1.18 6.22-3.13 8.35-1.96 2.13-4.66 3.45-7.65 3.47-.93 0-1.83-.1-2.7-.34-1.46-.27-2.8-.93-3.95-1.84-.7-.56-1.37-1.22-1.94-1.96 0-.02-.03-.04-.04-.06-.02 0-.02-.02-.03-.03.17 1.04.42 2.04.73 2.94.1.32.2.62.32.9.7 1.88 1.6 3.36 2.25 4.32.56.83.97 1.28.97 1.28-2.8-1.68-4.56-3.93-5.67-6.12-.2-.42-.4-.83-.56-1.23-1.04-2.6-1.27-4.92-1.3-5.96-1.02.72-1.67 1.9-1.67 3.23 0 .1 0 .2.02.3-2.5-2.45-4.14-5.34-4.77-8.53-.94-4.66.48-10.3 4.3-15.14 1.3-1.63 2.86-3.17 4.7-4.56 0-.27 0-.54.02-.8.14-1.94.82-3.6 2.05-5.07.22-.26.45-.5.7-.76l.52-.48c2.58-2.3 6.68-4.12 12.34-5.88 3.5-1.1 7.07-1.46 10.48-1.3 10.1.5 18.76 5.7 19.6 10.87.14.83.1 1.65-.2 2.46-.2.6-.44 1.15-.7 1.68 1.47 1.2 2.74 2.5 3.82 3.88l-.1-.1c3.83 4.87 5.24 10.5 4.3 15.15zm-34.45 1.37c-.02-1.53-.35-2.76-.92-3.78-.43-.75-1-1.38-1.67-1.92-1.17-.92-2.75-1.52-4.54-1.77-.65-.08-1.32-.13-2.02-.12h-.02c-2.62.02-4.94.7-6.52 1.98l.04-.02c-1.58 1.3-2.5 3.08-2.5 5.74.02 1.04.18 2.03.46 2.96.45 1.47 1.22 2.78 2.23 3.86.24.26.5.5.77.73.98.8 2.1 1.43 3.34 1.77.76.2 1.54.3 2.35.3 2.35 0 4.5-.97 6.08-2.54l.33-.34c1.63-1.8 2.6-4.2 2.6-6.86zm6.4-4.58c.58-1.15 1.38-2.12 2.35-2.86 1.47-1.14 3.27-1.8 5.25-2.1 1.1-.23 2.25-.35 3.45-.34 2.7.02 5.27.46 7.27 1.67.42.26.82.56 1.18.9 0-.02 0-.03-.02-.03-.68-2.94-1.8-5.68-3.28-8.12-6.83 5.7-17.32 3.56-17.32 3.56 1.1-.43 2.06-.86 2.86-1.3 4.9-2.64 4.3-5.12 4.3-5.12l-.52.32c-3.07 1.85-5.86 3-8.38 3.7-8.6 2.38-14.16-.42-18.14 1.77-2.2 1.2-3.4 3.18-4.08 5.08.32-.3.67-.54 1.04-.77 2-1.2 4.56-1.63 7.27-1.65 1.2 0 2.35.1 3.44.36 1.98.3 3.8.96 5.26 2.1.9.7 1.67 1.58 2.24 2.64.64-.27 1.5-.52 2.56-.53h.4c.9.05 1.82.25 2.85.76zm18.55 7.66c.28-.93.45-1.92.45-2.95 0-2.66-.92-4.44-2.5-5.73-1.58-1.27-3.9-1.96-6.52-1.98H62c-.7 0-1.36.04-2 .12-1.8.25-3.38.84-4.56 1.77-.68.54-1.24 1.17-1.67 1.92l.05-.03c-.57 1.02-.9 2.25-.92 3.78 0 2.66.97 5.07 2.6 6.85.1.12.22.23.34.35 1.6 1.57 3.73 2.54 6.08 2.56.8 0 1.6-.1 2.34-.3 1.23-.34 2.36-.96 3.33-1.77.26-.22.53-.46.77-.72 1-1.07 1.78-2.4 2.23-3.86zm-8.98-2.47c-1.03-.08-1.93.7-2 1.7-.04.5.12.97.42 1.33.5.06 1.08.1 1.73.13.37.02.72.02 1.07 0 .13-.14.24-.3.33-.45l-1.3-.64 1.43-.7c-.2-.72-.85-1.27-1.66-1.33l-.02-.02z"/></svg>