<?xml version="1.0" encoding="utf-8"?>
<!-- Generator: Adobe Illustrator 15.1.0, SVG Export Plug-In . SVG Version: 6.00 Build 0)  -->
<!DOCTYPE svg PUBLIC "-//W3C//DTD SVG 1.1//EN" "http://www.w3.org/Graphics/SVG/1.1/DTD/svg11.dtd">
<svg version="1.1" id="Layer_1" xmlns="http://www.w3.org/2000/svg" xmlns:xlink="http://www.w3.org/1999/xlink" x="0px" y="0px"
	 width="100px" height="100px" viewBox="0 0 100 100" enable-background="new 0 0 100 100" xml:space="preserve">
<linearGradient id="SVGID_1_" gradientUnits="userSpaceOnUse" x1="49.2598" y1="26.4878" x2="49.2598" y2="100.0005">
	<stop  offset="0" style="stop-color:#2EBFCB"/>
	<stop  offset="0.372" style="stop-color:#2CBCC9"/>
	<stop  offset="0.608" style="stop-color:#23B4C3"/>
	<stop  offset="0.806" style="stop-color:#16A5B9"/>
	<stop  offset="0.983" style="stop-color:#0290AA"/>
	<stop  offset="1" style="stop-color:#008EA8"/>
</linearGradient>
<path fill="url(#SVGID_1_)" d="M75.9,26.49c1.92,2.44-12.52,3.65-26.88,3.63v0.07c-14.2-0.01-28.3-1.22-26.4-3.63
	c-5.06,5.96-8.1,13.63-8.1,22.01c0,1.78,0.17,3.58,0.49,5.4c0.32,1.81,0.8,3.65,1.41,5.48c1.93,5.81,5.19,11.63,9.16,17.12
	c1.46,2.02,3.02,4,4.64,5.91C32.5,85.42,41.61,94.7,49.26,100c7.27-4.97,16.53-14.33,19.04-17.59c1.62-1.91,3.18-3.89,4.64-5.91
	c3.97-5.49,7.23-11.31,9.16-17.12c0.61-1.83,1.09-3.67,1.41-5.48c0.32-1.82,0.49-3.62,0.49-5.4C84,40.12,80.96,32.45,75.9,26.49z"/>
<linearGradient id="SVGID_2_" gradientUnits="userSpaceOnUse" x1="49.1968" y1="82.249" x2="49.1968" y2="19.0396">
	<stop  offset="0" style="stop-color:#FAB881"/>
	<stop  offset="0.385" style="stop-color:#FAB67F"/>
	<stop  offset="0.606" style="stop-color:#F9AF76"/>
	<stop  offset="0.785" style="stop-color:#F8A468"/>
	<stop  offset="0.941" style="stop-color:#F69455"/>
	<stop  offset="1" style="stop-color:#F58C4B"/>
</linearGradient>
<path fill="url(#SVGID_2_)" d="M73.79,46.67c2.41-18-8.54-27.63-24.04-27.63c-24.6,0-26.4,17.87-25.61,27.99
	c-0.72,0.72-1.1,1.77-1.1,2.87c0,0.1,0.01,0.19,0.01,0.29c0.14,1.91,1.64,3.46,3.54,3.66c-0.04-0.09,3.94,3.86,4.37,4.48
	c3.42,4.76,8.67,8.47,14.24,9.6c-0.74,8.39-3.09,10.72-7.91,10.72c0,0,1.5,3.6,12.01,3.6s12.01-3.61,12.01-3.61
	c-4.38,0-6.73-1.92-7.68-8.56l-0.24-2.16c1.03-0.21,2.03-0.5,3.01-0.86c3.76-1.37,7.09-3.79,9.73-6.96l5.55-6.21
	c1.93-0.18,3.51-1.95,3.65-3.89c0.01-0.09,0.02-0.19,0.02-0.29C75.35,48.38,74.8,47.39,73.79,46.67z"/>
<path fill="#F58C4B" d="M53.57,70.12c0,0-0.17-1.25-0.24-2.16c0,0-2.18,0.55-5.67,0.34C47.66,68.3,50.16,70.02,53.57,70.12
	L53.57,70.12z"/>
<path fill="#C14E47" d="M49.24,60.46c-2.33,0-4.06-0.48-5.31-1.08c0.3,0.31,0.84,0.81,1.56,1.28c0.96,0.63,2.24,1.19,3.76,1.19
	c1.62,0,2.91-0.58,3.82-1.19c0.8-0.53,1.29-1.09,1.45-1.27C53.26,59.98,51.55,60.45,49.24,60.46L49.24,60.46z"/>
<path fill="#FFFFFF" d="M49.47,84.91c5.8,0,12.33-0.68,18.98-2.69c-0.05,0.06-0.1,0.13-0.15,0.19c-0.61,0.79-1.64,1.96-2.93,3.33
	c-0.02,0.02-0.04,0.03-0.06,0.04c-0.01,0.01-0.02,0.02-0.03,0.03c-5.56,1.29-10.93,1.76-15.8,1.76c-6.58,0-12.24-0.85-16.19-1.68
	c-0.02-0.02-0.04-0.02-0.05-0.03c-1.34-1.41-2.37-2.57-2.97-3.33c-0.01-0.03-0.03-0.06-0.07-0.11c1,0.27,2.34,0.6,3.98,0.94
	C37.97,84.14,43.31,84.91,49.47,84.91z M63.08,88.1c-4.92,1.05-9.71,1.45-14.06,1.45l-0.04-0.03c-5.16,0-9.73-0.54-13.31-1.18
	c1.03,1.02,2.14,2.1,3.31,3.19c2.96,0.38,6.34,0.64,10.01,0.64c3.36,0,6.98-0.23,10.71-0.79C60.88,90.26,62.03,89.15,63.08,88.1z
	 M48.76,94.13L48.76,94.13c-2.62,0-5.09-0.15-7.36-0.37c1.11,0.99,2.25,1.98,3.39,2.92c0.02,0,0.04,0.01,0.06,0.01
	c1.26,0.06,2.56,0.1,3.91,0.1c1.6,0,3.26-0.05,4.95-0.16h0.01l0.07-0.01c1.14-0.95,2.29-1.94,3.41-2.95
	C56.23,93.82,51.44,94.13,48.76,94.13z M32.26,45.9c0,0,5.15,2.21,9.98-0.73C42.24,45.18,36.72,37.46,32.26,45.9L32.26,45.9z
	 M66.18,45.9c0,0-5.14,2.21-9.97-0.73C56.21,45.18,61.73,37.46,66.18,45.9L66.18,45.9z"/>
<path fill="#870815" d="M36.76,41.52c4.16-0.09,5.49,3.65,5.49,3.65s-1.88-2.92-5.31-2.71c-3.43,0.21-4.67,3.44-4.67,3.44
	c-0.02,0-0.04-0.01-0.06-0.02c-1.98-0.51-2.24-2.4-2.24-2.4c0.85,0.8,1.85,0.59,1.85,0.59s1.42-2.48,4.93-2.55H36.76z M49.9,47.52
	c0,0,1.67,2.84-0.66,4.84l-0.01,0.01c-0.21,0.18-0.44,0.35-0.72,0.51c0.24,0.06,0.48,0.09,0.72,0.09h0.01
	c1.22-0.01,2.32-0.84,2.65-2.08C52.27,49.4,51.38,47.89,49.9,47.52L49.9,47.52z M66.23,45.89c1.97-0.51,2.23-2.4,2.23-2.4
	c-0.85,0.8-1.85,0.59-1.85,0.59s-1.42-2.48-4.93-2.55c-4.15-0.09-5.49,3.65-5.49,3.65s1.88-2.92,5.31-2.71
	c3.44,0.21,4.67,3.44,4.67,3.44c0.02,0,0.04-0.01,0.06-0.02H66.23z M50.92,57.66c0,0-1.17,0.23-1.58,0.92
	c-0.04,0.06-0.07,0.12-0.09,0.19c-0.03-0.07-0.06-0.13-0.1-0.19c-0.41-0.69-1.58-0.92-1.58-0.92c-2.4-0.6-2.79,0.56-6.43-0.56
	c0,0,0.28,0.47,0.94,1.05c0.44,0.39,1.06,0.83,1.87,1.23c1.25,0.6,2.98,1.08,5.32,1.08c2.31,0,4.02-0.47,5.27-1.06
	c0.84-0.4,1.47-0.85,1.92-1.24c0.66-0.58,0.94-1.05,0.94-1.05c-3.64,1.13-4.03-0.04-6.44,0.57L50.92,57.66z"/>
<path fill="#3E0000" d="M31.92,41.64c-0.51,1-1.21,0.07-0.82-0.7c1.53-3.04,5.16-4.1,8.32-3.94c0.78,0.04,0.45,1.68-0.19,1.64
	C36.65,38.51,33.14,39.21,31.92,41.64L31.92,41.64z M37.44,43.55c-1.03-0.08-1.93,0.69-2.01,1.71c-0.04,0.56,0.17,1.08,0.55,1.45
	c0.23,0.01,0.47,0.02,0.71,0.01c0.81-0.03,1.51-0.09,2.11-0.18c0.06-0.08,0.13-0.18,0.18-0.27l-1.31-0.64l1.44-0.71
	c-0.22-0.72-0.86-1.27-1.67-1.33V43.55z M29.46,14.31c-0.32,0.37-0.61,0.74-0.86,1.14c-1.04-1.12-1.97-3.25-1.29-7.3
	c0,0,0.52,1.71,1.35,2.91c-0.03-0.79,0.05-1.55,0.22-2.25c1.33-5.32,6.96-11.25,14.53-7.78c0,0,9.56-2.02,10.01,4.99
	C50,5.86,46.41,6.22,42.9,7.32c-5.69,1.77-9.81,3.62-12.39,5.92C30.13,13.59,29.78,13.94,29.46,14.31L29.46,14.31z M66.52,41.64
	c-1.22-2.42-4.73-3.13-7.32-2.99c-0.63,0.04-0.97-1.6-0.19-1.64c3.16-0.17,6.79,0.9,8.33,3.94C67.73,41.72,67.03,42.64,66.52,41.64
	L66.52,41.64z M80.1,41.57c-0.63,3.19-2.27,6.08-4.77,8.53c0.01-0.1,0.02-0.19,0.02-0.29c0-1.33-0.66-2.51-1.67-3.23
	c-0.06,1.04-0.32,3.4-1.39,6c-0.17,0.39-0.35,0.79-0.54,1.19c-1.13,2.25-2.93,4.56-5.77,6.29l-0.01,0c0,0,0.03-0.02,0.05-0.05
	c0.07-0.08,0.22-0.26,0.43-0.53c0.67-0.86,1.91-2.68,2.87-5.15c0.12-0.3,0.23-0.61,0.34-0.94c0.29-0.87,0.53-1.8,0.71-2.79
	c-0.57,0.71-1.19,1.36-1.88,1.9c-1.16,0.92-2.49,1.57-3.95,1.84c-0.85,0.24-1.76,0.35-2.69,0.35c-2.98-0.02-5.68-1.34-7.64-3.47
	c-1.95-2.12-3.17-5.08-3.14-8.33c0-0.87,0.1-1.69,0.28-2.45c-0.84-0.47-1.53-0.65-2.1-0.7h-0.01c-0.13-0.02-0.26-0.02-0.38-0.02
	c-0.8,0-1.44,0.28-1.79,0.48c0.22,0.84,0.34,1.74,0.34,2.71c0.02,3.26-1.19,6.21-3.14,8.34c-1.96,2.13-4.66,3.45-7.65,3.47
	c-0.93,0.01-1.83-0.11-2.7-0.34c-1.46-0.27-2.79-0.93-3.95-1.84c-0.71-0.56-1.37-1.22-1.94-1.96c-0.01-0.02-0.03-0.04-0.04-0.06
	c-0.01-0.01-0.01-0.02-0.02-0.03c0.17,1.05,0.42,2.05,0.73,2.95c0.1,0.32,0.21,0.62,0.32,0.91c0.71,1.87,1.59,3.35,2.25,4.31
	c0.56,0.83,0.97,1.28,0.97,1.28c-2.79-1.68-4.56-3.93-5.67-6.12c-0.21-0.42-0.4-0.83-0.56-1.23c-1.05-2.58-1.28-4.91-1.32-5.95
	c-1.01,0.72-1.66,1.9-1.66,3.23c0,0.1,0.01,0.2,0.02,0.3c-2.5-2.45-4.14-5.34-4.77-8.53c-0.94-4.66,0.48-10.29,4.31-15.14
	c1.29-1.63,2.85-3.17,4.68-4.56c0-0.27,0.01-0.54,0.03-0.81c0.14-1.93,0.82-3.59,2.05-5.06c0.22-0.26,0.45-0.51,0.7-0.76
	c0.17-0.17,0.34-0.33,0.52-0.49c2.58-2.29,6.68-4.12,12.34-5.88c3.49-1.09,7.06-1.46,10.47-1.29c10.1,0.49,18.76,5.68,19.61,10.86
	c0.13,0.82,0.08,1.64-0.2,2.45c-0.21,0.59-0.45,1.15-0.7,1.68c1.46,1.2,2.73,2.51,3.81,3.88l-0.1-0.09
	C79.63,31.29,81.04,36.91,80.1,41.57z M45.65,42.94c-0.02-1.53-0.35-2.76-0.92-3.78c-0.43-0.75-0.99-1.38-1.67-1.92
	c-1.17-0.92-2.75-1.52-4.54-1.77c-0.65-0.08-1.32-0.13-2.02-0.12h-0.02c-2.62,0.02-4.94,0.71-6.52,1.98L30,37.31
	c-1.58,1.29-2.5,3.07-2.49,5.73c0.01,1.04,0.17,2.03,0.45,2.96c0.45,1.47,1.22,2.78,2.23,3.86c0.25,0.26,0.51,0.5,0.78,0.73
	c0.98,0.82,2.1,1.44,3.34,1.78c0.75,0.21,1.53,0.31,2.34,0.31c2.35-0.01,4.49-0.98,6.08-2.55c0.11-0.11,0.22-0.23,0.33-0.34
	C44.69,48.01,45.67,45.6,45.65,42.94z M52.05,38.36c0.58-1.15,1.38-2.12,2.35-2.86c1.47-1.14,3.27-1.81,5.25-2.09
	c1.1-0.24,2.25-0.36,3.45-0.35c2.71,0.02,5.27,0.46,7.27,1.67c0.42,0.26,0.82,0.56,1.18,0.89c-0.01-0.01-0.01-0.02-0.02-0.02
	c-0.68-2.94-1.81-5.68-3.28-8.12c-6.83,5.71-17.32,3.56-17.32,3.56c1.11-0.43,2.06-0.86,2.86-1.29c4.91-2.65,4.31-5.13,4.31-5.13
	c-0.18,0.11-0.35,0.22-0.52,0.32c-3.07,1.85-5.86,3-8.38,3.7h-0.01c-8.58,2.38-14.15-0.42-18.13,1.77
	c-2.19,1.19-3.41,3.17-4.08,5.07c0.32-0.29,0.67-0.54,1.04-0.77c2-1.2,4.56-1.64,7.27-1.66c1.2-0.01,2.36,0.11,3.45,0.36
	c1.98,0.28,3.79,0.95,5.26,2.09c0.91,0.69,1.67,1.58,2.24,2.64c0.64-0.27,1.5-0.52,2.56-0.53h0.41
	C50.11,37.65,51.02,37.85,52.05,38.36z M70.6,46.02c0.28-0.93,0.45-1.92,0.45-2.95c0-2.66-0.92-4.44-2.5-5.73
	c-1.58-1.27-3.9-1.96-6.52-1.98h-0.02c-0.7-0.01-1.37,0.04-2.02,0.12c-1.8,0.25-3.37,0.84-4.55,1.77c-0.68,0.54-1.24,1.17-1.67,1.92
	l0.05-0.03c-0.57,1.02-0.9,2.25-0.92,3.78c-0.01,2.66,0.97,5.07,2.6,6.85c0.11,0.12,0.22,0.23,0.34,0.35
	c1.6,1.57,3.73,2.54,6.08,2.56c0.81,0.01,1.59-0.1,2.34-0.3c1.23-0.34,2.36-0.96,3.33-1.77c0.27-0.23,0.54-0.47,0.78-0.73
	C69.38,48.81,70.15,47.49,70.6,46.02z M61.62,43.55c-1.03-0.08-1.93,0.69-2.01,1.71c-0.03,0.5,0.13,0.96,0.43,1.32
	c0.51,0.06,1.08,0.11,1.73,0.13c0.37,0.01,0.72,0.01,1.07-0.02c0.13-0.13,0.24-0.28,0.33-0.44l-1.31-0.64l1.44-0.71
	c-0.21-0.72-0.85-1.27-1.66-1.33L61.62,43.55z"/>
</svg>
