<svg xmlns="http://www.w3.org/2000/svg" width="100" height="100"><path fill="#FFF" d="M48.758 94.13c-2.632 0-5.115-.15-7.39-.37 1.165 1.022 2.327 2.002 3.48 2.928 1.26.063 2.564.098 3.91.098 1.603 0 3.256-.048 4.953-.162h.01l.84-.684c.04-.026.07-.054.09-.074.57-.47 1.14-.948 1.71-1.438.04-.027.07-.058.1-.09.27-.223.53-.45.78-.678.02-.014.04-.03.05-.048-2.96.362-5.82.517-8.53.517zm.208-4.608c-5.174 0-9.76-.547-13.345-1.182 1.09 1.1 2.19 2.167 3.29 3.192 2.97.38 6.37.647 10.06.65 3.38 0 7.02-.228 10.78-.802.01-.003.02-.012.02-.016.34-.318.68-.64 1.02-.963.1-.09.2-.18.29-.28l.75-.72c.1-.1.21-.2.31-.3.3-.29.59-.59.89-.89.04-.04.08-.08.12-.11.01-.01.02-.02.03-.02-4.96 1.07-9.78 1.47-14.17 1.47z"/><linearGradient id="a" gradientUnits="userSpaceOnUse" x1="49.243" y1="82.286" x2="49.243" y2="24.694"><stop offset="0" stop-color="#FAB881"/><stop offset=".385" stop-color="#FAB67F"/><stop offset=".606" stop-color="#F9AF76"/><stop offset=".785" stop-color="#F8A468"/><stop offset=".941" stop-color="#F69455"/><stop offset="1" stop-color="#F58C4B"/></linearGradient><path fill="url(#a)" d="M30.928 50.61c.973.82 2.1 1.433 3.336 1.774.75.206 1.535.313 2.344.307 2.357-.01 4.49-.98 6.086-2.55.114-.11.228-.23.337-.35 1.63-1.77 2.62-4.19 2.6-6.84-.02-1.53-.34-2.76-.91-3.77-.42-.75-.98-1.38-1.66-1.92-1.18-.92-2.75-1.52-4.54-1.76-.65-.08-1.32-.13-2.02-.12h-.02c-2.62.02-4.93.71-6.51 1.98-1.58 1.29-2.5 3.07-2.49 5.73.01 1.04.17 2.02.45 2.96.45 1.47 1.23 2.79 2.24 3.86.25.26.52.51.79.73zm8.042-4.368c-.053.1-.116.19-.18.278-.603.088-1.3.154-2.113.183-.24.01-.478.008-.708-.002-.38-.36-.59-.88-.55-1.44.08-1.02.98-1.78 2.01-1.71.8.06 1.45.62 1.66 1.34l-1.44.72 1.31.65zM31.1 40.94c1.533-3.04 5.16-4.105 8.325-3.936.785.044.447 1.675-.188 1.64-2.583-.136-6.094.57-7.32 2.994-.508 1.005-1.21.077-.816-.7zm.72 3.136s1.418-2.476 4.927-2.552c4.156-.087 5.49 3.653 5.49 3.653s-1.877-2.917-5.31-2.71c-3.43.21-4.666 3.437-4.666 3.437-.01-.003-.03-.012-.05-.017-1.97-.51-2.23-2.4-2.23-2.4.86.795 1.85.59 1.85.59zM24.7 46.67c-1.006.723-1.66 1.897-1.66 3.227 0 .1.01.194.014.292.143 1.91 1.638 3.46 3.538 3.66-.208-.42-.4-.83-.565-1.24-1.054-2.58-1.282-4.91-1.327-5.95zm43.833-9.332c-1.583-1.274-3.896-1.965-6.516-1.982h-.02c-.698-.007-1.372.04-2.017.124-1.797.247-3.366.844-4.546 1.766-.68.54-1.24 1.172-1.665 1.92-.57 1.015-.9 2.247-.92 3.776-.02 2.657.96 5.07 2.59 6.847.1.11.22.23.34.34 1.59 1.57 3.73 2.54 6.08 2.55.81 0 1.59-.1 2.35-.31 1.23-.34 2.36-.96 3.33-1.78.27-.23.54-.47.78-.73 1.01-1.08 1.78-2.39 2.23-3.86.28-.93.45-1.92.45-2.96 0-2.66-.92-4.44-2.5-5.73zm-9.52-.334c3.162-.17 6.79.897 8.326 3.935.39.77-.31 1.7-.82.69-1.22-2.43-4.74-3.13-7.32-3-.63.03-.97-1.6-.19-1.64zm4.14 9.238c-.086.164-.193.312-.32.443-.343.023-.698.032-1.066.02-.65-.022-1.225-.07-1.73-.132-.296-.357-.463-.822-.43-1.316.08-1.02.98-1.785 2.012-1.708.8.06 1.44.61 1.66 1.33l-1.44.71 1.31.64zm3.078-.355c-.01.005-.03.014-.05.017 0 0-1.23-3.226-4.66-3.436-3.43-.208-5.31 2.71-5.31 2.71s1.34-3.74 5.49-3.654c3.51.076 4.93 2.552 4.93 2.552s1 .206 1.85-.59c0 0-.26 1.89-2.23 2.4zm7.55.778c-.05 1.043-.31 3.402-1.39 6.006-.17.39-.34.79-.54 1.19 1.93-.18 3.45-1.73 3.59-3.67.01-.09.02-.19.02-.29 0-1.33-.66-2.51-1.67-3.23zm-22.79-15.54c1.12-.433 2.07-.868 2.87-1.297 4.91-2.65 4.31-5.134 4.31-5.134-.18.11-.35.216-.52.317-3.07 1.86-5.86 3-8.38 3.7h-.01c-8.58 2.38-14.15-.41-18.14 1.77-2.19 1.21-3.41 3.19-4.08 5.09.34-.29.69-.55 1.07-.79 2-1.2 4.56-1.64 7.27-1.66 1.2-.01 2.36.11 3.45.36 1.98.28 3.79.95 5.26 2.09.91.7 1.67 1.59 2.24 2.65.64-.27 1.5-.52 2.55-.52h.41c.9.04 1.81.24 2.84.75.58-1.15 1.39-2.12 2.35-2.86 1.47-1.14 3.28-1.81 5.25-2.09 1.1-.25 2.25-.36 3.45-.35 2.72.03 5.28.46 7.27 1.67.43.26.83.56 1.19.9-.68-2.94-1.8-5.68-3.28-8.12C61.5 33.28 51 31.13 51 31.13zm17.52 21.423c-1.16.916-2.48 1.572-3.95 1.838-.85.237-1.76.352-2.69.346-2.98-.02-5.68-1.342-7.64-3.468-1.95-2.123-3.17-5.078-3.14-8.334.01-.873.1-1.692.28-2.456-.84-.47-1.53-.654-2.1-.705h-.01c-.13-.02-.26-.02-.38-.02-.8 0-1.44.28-1.78.47.22.83.34 1.73.34 2.7.03 3.25-1.19 6.21-3.14 8.33-1.95 2.12-4.66 3.44-7.64 3.47-.93 0-1.83-.11-2.7-.35-1.46-.27-2.79-.92-3.95-1.84-.71-.57-1.36-1.23-1.94-1.97-.01-.02-.03-.04-.04-.06.17 1.06.42 2.05.73 2.96.1.32.21.62.32.91.72 1.87 1.59 3.34 2.25 4.3 3.42 4.76 8.3 8.14 13.87 9.26-.74 8.39-3.09 10.72-7.91 10.72 0 0 1.5 3.6 12.01 3.6s12.01-3.61 12.01-3.61c-4.38 0-6.73-1.92-7.68-8.56-3.09-.29-4.95-1.19-5.91-1.82.52.04 1.05.06 1.58.06 1.4 0 2.76-.14 4.09-.4 1.03-.21 2.03-.5 3.01-.86 3.76-1.37 7.09-3.79 9.73-6.96l.05-.05c.14-.18.28-.35.42-.53.67-.87 1.91-2.69 2.87-5.16.12-.31.23-.62.34-.94.3-.91.56-1.89.74-2.94-.01.01-.02.02-.03.04-.57.73-1.22 1.4-1.93 1.96zm-19.27-.186l.01-.006c2.33-2.004.66-4.84.66-4.84 1.48.38 2.37 1.892 1.99 3.37-.32 1.24-1.42 2.063-2.64 2.073h-.01c-.23 0-.48-.03-.72-.09.28-.16.51-.33.72-.51zm7.19 5.79c-.45.395-1.07.843-1.91 1.242-.15.178-.64.734-1.44 1.265-.91.61-2.2 1.19-3.82 1.19-1.51 0-2.8-.56-3.76-1.2-.72-.47-1.25-.98-1.55-1.28-.82-.4-1.43-.84-1.87-1.23-.66-.59-.93-1.06-.93-1.06 3.65 1.12 4.03-.04 6.44.56 0 0 1.17.23 1.59.92.04.06.07.12.1.19.02-.07.06-.14.09-.2.42-.69 1.59-.92 1.59-.92 2.41-.6 2.8.56 6.44-.56 0 0-.27.47-.93 1.05z"/><path fill="#FFF" d="M49.474 84.914c-6.163 0-11.506-.77-15.298-1.55-1.634-.334-2.98-.67-3.978-.937.498.59 1.007 1.173 1.52 1.75.002 0 .002.003.006.003.02.018.036.037.052.058.498.557 1 1.113 1.507 1.66 3.95.827 9.608 1.68 16.192 1.68 4.868 0 10.24-.47 15.8-1.764.01-.007.02-.017.03-.027.318-.34.624-.68.935-1.025.095-.108.195-.215.29-.322.236-.27.475-.53.703-.798.094-.104.188-.215.28-.318.316-.365.628-.73.947-1.097v-.007l.003-.003c-6.657 2.013-13.182 2.697-18.99 2.697z"/><path fill="#3E0000" d="M25.664 46.125c0 .012.007.022.012.034.322.92.72 1.81 1.19 2.65.34.6.716 1.17 1.128 1.71.015.02.032.04.043.06.575.74 1.226 1.4 1.94 1.96 1.16.91 2.49 1.57 3.95 1.84.863.23 1.767.35 2.696.34 2.982-.02 5.688-1.34 7.645-3.47 1.955-2.13 3.167-5.08 3.144-8.34-.003-.97-.124-1.87-.34-2.71.344-.2.982-.48 1.786-.48.12 0 .25 0 .38.02h.008c.572.05 1.26.23 2.103.7-.18.76-.28 1.58-.28 2.45-.03 3.25 1.19 6.21 3.14 8.33 1.96 2.13 4.66 3.45 7.64 3.47.93 0 1.84-.11 2.69-.35 1.46-.27 2.79-.92 3.95-1.84.71-.56 1.36-1.23 1.94-1.97.01-.02.01-.03.03-.04.41-.54.79-1.11 1.13-1.71.47-.85.88-1.74 1.2-2.67 0-.02.01-.03.01-.04.46-1.34.76-2.76.89-4.18.02-.29.04-.58.04-.86.01-1.46-.31-2.76-.91-3.82-.34-.61-.77-1.13-1.26-1.58-.37-.34-.77-.64-1.19-.9-2-1.21-4.56-1.65-7.27-1.67-1.2-.01-2.35.11-3.45.35-1.98.28-3.78.95-5.25 2.09-.97.74-1.77 1.71-2.35 2.86-1.03-.51-1.94-.71-2.84-.75h-.41c-1.06.01-1.92.26-2.56.53-.57-1.06-1.33-1.95-2.24-2.64-1.47-1.14-3.28-1.81-5.26-2.09-1.09-.25-2.25-.37-3.45-.36-2.71.02-5.27.46-7.27 1.66-.38.23-.74.49-1.07.79l-.12.12c-.16.15-.32.3-.46.46-.3.33-.56.7-.8 1.11-.08.15-.16.3-.23.46-.14.31-.27.64-.36.98-.21.73-.32 1.524-.31 2.38 0 .28.01.57.04.864.12 1.42.42 2.83.89 4.176zm28.107-6.958c.43-.75.99-1.382 1.67-1.92 1.18-.923 2.75-1.52 4.55-1.767.65-.085 1.32-.13 2.02-.124h.02c2.62.017 4.94.708 6.52 1.982 1.58 1.292 2.5 3.07 2.5 5.73 0 1.034-.17 2.023-.45 2.954-.45 1.467-1.22 2.785-2.23 3.857-.24.26-.51.5-.78.73-.97.81-2.1 1.43-3.33 1.77-.75.2-1.53.31-2.34.3-2.35-.02-4.48-.99-6.08-2.56-.12-.12-.23-.23-.34-.35-1.63-1.78-2.61-4.19-2.6-6.85.02-1.53.35-2.76.92-3.78zm-23.81-1.83c1.58-1.273 3.9-1.964 6.52-1.98h.02c.7-.008 1.37.038 2.02.123 1.79.247 3.37.844 4.54 1.766.68.54 1.24 1.172 1.67 1.92.57 1.015.9 2.247.92 3.776.02 2.657-.96 5.07-2.59 6.847-.11.11-.22.23-.33.34-1.59 1.57-3.73 2.54-6.08 2.55-.81 0-1.59-.1-2.34-.31-1.24-.34-2.36-.96-3.34-1.78-.27-.23-.53-.47-.78-.73-1.01-1.08-1.78-2.39-2.23-3.86-.28-.93-.44-1.92-.45-2.96-.01-2.66.91-4.44 2.49-5.73z"/><linearGradient id="b" gradientUnits="userSpaceOnUse" x1="66.322" y1="26.538" x2="66.322" y2="99.984"><stop offset="0" stop-color="#2EBFCB"/><stop offset=".372" stop-color="#2CBCC9"/><stop offset=".608" stop-color="#23B4C3"/><stop offset=".806" stop-color="#16A5B9"/><stop offset=".983" stop-color="#0290AA"/><stop offset="1" stop-color="#008EA8"/></linearGradient><path fill="url(#b)" d="M66.11 60.1c.068-.08.216-.26.423-.527l-.422.526z"/><linearGradient id="c" gradientUnits="userSpaceOnUse" x1="49.241" y1="26.521" x2="49.241" y2="99.997"><stop offset="0" stop-color="#2EBFCB"/><stop offset=".372" stop-color="#2CBCC9"/><stop offset=".608" stop-color="#23B4C3"/><stop offset=".806" stop-color="#16A5B9"/><stop offset=".983" stop-color="#0290AA"/><stop offset="1" stop-color="#008EA8"/></linearGradient><path fill="url(#c)" d="M83.896 45.898c-.07-.872-.167-1.733-.302-2.585-.043-.287-.09-.567-.144-.85-.667-3.692-1.936-7.178-3.695-10.358-.117-.212-.238-.423-.358-.633-.282-.478-.57-.95-.872-1.414-.03-.047-.064-.092-.095-.14-.167-.26-.34-.52-.522-.777-.174-.25-.35-.5-.533-.74-.04-.05-.07-.1-.11-.14-.436-.59-.896-1.16-1.368-1.72 3.822 4.86 5.237 10.49 4.305 15.14-.637 3.19-2.27 6.08-4.77 8.53-.146 1.94-1.668 3.49-3.592 3.67-1.134 2.26-2.93 4.57-5.77 6.29-2.64 3.17-5.976 5.6-9.734 6.97-.977.36-1.98.65-3.008.85-1.326.27-2.694.41-4.09.41-.53 0-1.06-.02-1.58-.06.96.63 2.828 1.54 5.915 1.82.95 6.64 3.296 8.56 7.68 8.56 0 0-1.504 3.6-12.01 3.6-10.507 0-12.004-3.6-12.004-3.6 4.82 0 7.17-2.33 7.91-10.72-5.57-1.12-10.45-4.5-13.87-9.26.56.83.97 1.28.97 1.28-2.79-1.69-4.55-3.93-5.67-6.13-1.9-.2-3.4-1.74-3.54-3.66-2.5-2.45-4.14-5.34-4.78-8.53-.94-4.66.48-10.29 4.3-15.14-5.06 5.96-8.1 13.63-8.1 22.01 0 1.78.17 3.58.49 5.4.32 1.81.8 3.65 1.41 5.48 1.93 5.81 5.19 11.63 9.16 17.12 1.46 2.02 3.02 4 4.64 5.91 1 .27 2.34.61 3.98.94 3.79.78 9.14 1.55 15.3 1.55 5.81 0 12.33-.68 18.99-2.7l.01-.01c.2-.23.39-.47.59-.71l.03-.03.58-.71.03-.03c.19-.24.38-.48.58-.72 0-.01.02-.02.02-.03.2-.24.38-.48.57-.72l.03-.03.57-.74.01-.01c1.34-1.76 2.62-3.56 3.81-5.38.36-.56.71-1.11 1.05-1.67.02-.03.03-.06.06-.09.13-.236.28-.47.41-.7l.09-.16c.13-.213.25-.42.37-.63l.12-.21.33-.583c.04-.08.09-.16.13-.24l.31-.55c.04-.09.1-.18.14-.27.09-.17.18-.35.28-.52.05-.1.1-.19.15-.286.09-.18.17-.35.26-.51.04-.11.1-.21.15-.31.08-.167.16-.33.25-.49.04-.11.1-.21.15-.32.08-.16.15-.32.23-.49l.16-.32c.07-.16.14-.32.22-.47l.15-.34c.07-.15.13-.31.2-.47.05-.11.1-.23.15-.34.06-.15.13-.31.2-.46.05-.112.09-.23.14-.34.06-.15.12-.31.18-.47.05-.115.09-.23.14-.34.06-.16.12-.315.17-.47.05-.115.09-.23.14-.344.05-.156.11-.31.16-.47.03-.115.08-.23.12-.34l.16-.47c.03-.117.08-.22.11-.34.05-.17.1-.33.15-.49.03-.105.06-.21.1-.31.05-.18.11-.37.16-.55l.07-.26c.08-.27.14-.54.22-.8.15-.61.3-1.22.42-1.83.18-.9.33-1.815.44-2.72.143-1.2.22-2.395.22-3.58 0-.884-.037-1.765-.097-2.636z"/><linearGradient id="d" gradientUnits="userSpaceOnUse" x1="49.292" y1="26.524" x2="49.292" y2="100.002"><stop offset="0" stop-color="#2EBFCB"/><stop offset=".372" stop-color="#2CBCC9"/><stop offset=".608" stop-color="#23B4C3"/><stop offset=".806" stop-color="#16A5B9"/><stop offset=".983" stop-color="#0290AA"/><stop offset="1" stop-color="#008EA8"/></linearGradient><path fill="url(#d)" d="M49.474 87.577c-6.583 0-12.243-.853-16.192-1.68.77.83 1.553 1.646 2.34 2.443 3.585.635 8.17 1.182 13.344 1.182 4.394 0 9.21-.4 14.175-1.463.23-.24.45-.47.67-.69.14-.15.27-.28.4-.42l.93-.99c.05-.05.1-.1.14-.16l.03-.03-.03.02c-5.56 1.29-10.93 1.76-15.8 1.76z"/><linearGradient id="e" gradientUnits="userSpaceOnUse" x1="49.322" y1="26.457" x2="49.322" y2="100.009"><stop offset="0" stop-color="#2EBFCB"/><stop offset=".372" stop-color="#2CBCC9"/><stop offset=".608" stop-color="#23B4C3"/><stop offset=".806" stop-color="#16A5B9"/><stop offset=".983" stop-color="#0290AA"/><stop offset="1" stop-color="#008EA8"/></linearGradient><path fill="url(#e)" d="M48.966 92.184c-3.694-.003-7.095-.27-10.062-.65.816.765 1.64 1.51 2.465 2.227 2.27.23 4.75.37 7.39.37 2.7 0 5.56-.15 8.52-.51l.02-.01 1.18-1.05c.01-.01.03-.02.05-.04.39-.36.79-.72 1.19-1.09l.02-.01c-3.77.58-7.4.81-10.78.81z"/><linearGradient id="f" gradientUnits="userSpaceOnUse" x1="49.28" y1="26.546" x2="49.28" y2="100.001"><stop offset="0" stop-color="#2EBFCB"/><stop offset=".372" stop-color="#2CBCC9"/><stop offset=".608" stop-color="#23B4C3"/><stop offset=".806" stop-color="#16A5B9"/><stop offset=".983" stop-color="#0290AA"/><stop offset="1" stop-color="#008EA8"/></linearGradient><path fill="url(#f)" d="M48.758 96.785c-1.346 0-2.65-.034-3.91-.098 1.243.995 2.472 1.935 3.68 2.803.24.172.477.346.715.51.34-.238.683-.486 1.028-.74.04-.022.08-.048.11-.075.34-.248.68-.5 1.02-.754.04-.03.08-.05.11-.08.35-.26.7-.53 1.05-.8.02-.02.04-.03.06-.04.34-.27.68-.53 1.02-.81l.08-.06c-1.7.12-3.35.17-4.95.17z"/><path fill="#3E0000" d="M31.916 41.64c1.227-2.426 4.737-3.13 7.32-2.995.636.035.974-1.596.19-1.64-3.165-.17-6.793.897-8.325 3.935-.39.775.31 1.703.82.7z"/><path fill="#FFF" d="M32.26 45.904s5.146 2.205 9.976-.727c0 0-5.52-7.72-9.975.727zm33.92 0s-5.142 2.205-9.974-.727c0 0 5.52-7.72 9.973.727z"/><path fill="#870815" d="M36.747 41.524c-3.51.076-4.927 2.552-4.927 2.552s-.994.206-1.847-.59c0 0 .26 1.89 2.238 2.4.02.006.04.015.06.018 0 0 1.24-3.226 4.67-3.436 3.43-.208 5.31 2.71 5.31 2.71s-1.33-3.74-5.49-3.654z"/><path fill="#3E0000" d="M37.435 43.548c-1.033-.077-1.93.69-2.01 1.708-.04.56.173 1.078.545 1.445.23.01.468.02.708.01.813-.03 1.51-.09 2.112-.18.065-.08.128-.18.18-.27l-1.31-.64 1.44-.71c-.215-.72-.862-1.27-1.665-1.33z"/><path fill="#870815" d="M49.905 47.516s1.667 2.836-.66 4.84l-.007.006c-.208.18-.444.35-.716.51.24.063.482.09.716.087h.008c1.222-.01 2.324-.84 2.646-2.08.38-1.48-.507-2.99-1.987-3.37z"/><path fill="#3E0000" d="M29.464 14.31c.315-.37.664-.723 1.048-1.068 2.577-2.307 6.698-4.153 12.392-5.924C46.41 6.223 50 5.856 53.424 6.028c-.452-7.014-10.01-4.99-10.01-4.99C35.84-2.438 30.21 3.495 28.88 8.815c-.172.7-.25 1.462-.22 2.247-.826-1.202-1.35-2.913-1.35-2.913-.675 4.05.252 6.18 1.295 7.3.254-.4.54-.77.86-1.14zM66.52 41.64c.51 1.003 1.215.076.82-.7-1.537-3.038-5.165-4.104-8.327-3.935-.78.044-.442 1.675.188 1.64 2.59-.137 6.1.57 7.32 2.994z"/><path fill="#3E0000" d="M75.896 26.52c-1.08-1.368-2.348-2.676-3.81-3.878.25-.53.486-1.09.698-1.683.28-.81.335-1.63.204-2.45-.848-5.18-9.513-10.37-19.61-10.86-3.412-.17-6.984.2-10.474 1.29-5.655 1.76-9.756 3.59-12.336 5.88-.183.16-.354.32-.52.49-.25.25-.482.5-.7.76-1.226 1.47-1.906 3.13-2.05 5.06-.02.27-.036.54-.032.81-1.83 1.39-3.388 2.93-4.677 4.56-3.83 4.85-5.25 10.48-4.31 15.14.63 3.19 2.27 6.08 4.77 8.53-.01-.1-.02-.2-.02-.3 0-1.33.65-2.51 1.66-3.23.04 1.04.27 3.37 1.32 5.95.16.4.35.81.56 1.23 1.11 2.19 2.88 4.44 5.67 6.12 0 0-.41-.45-.97-1.28-.66-.96-1.54-2.44-2.25-4.31-.11-.29-.22-.59-.32-.91-.31-.91-.56-1.91-.73-2.97-.42-.54-.79-1.11-1.13-1.71-.47-.83-.87-1.73-1.19-2.65-.01-.02-.01-.02-.01-.04-.47-1.34-.77-2.75-.9-4.18-.03-.29-.04-.58-.05-.86-.01-.86.1-1.65.31-2.38.1-.35.22-.67.36-.99.07-.15.15-.31.23-.46.23-.41.5-.78.8-1.11.14-.16.3-.32.46-.47l.12-.12c.67-1.9 1.89-3.89 4.09-5.09 3.98-2.19 9.55.61 18.13-1.77h.01c2.52-.7 5.31-1.85 8.38-3.7.17-.1.34-.21.52-.32 0 0 .6 2.48-4.31 5.13-.8.43-1.75.86-2.86 1.29 0 0 10.49 2.15 17.32-3.56 1.47 2.44 2.6 5.18 3.28 8.12.49.45.91.98 1.25 1.58.6 1.06.92 2.36.91 3.82-.01.28-.02.564-.05.86-.13 1.42-.43 2.832-.9 4.173 0 .02 0 .03-.01.04-.32.937-.73 1.83-1.2 2.67-.34.6-.72 1.18-1.13 1.71-.18 1.05-.43 2.03-.74 2.94-.11.326-.22.64-.34.94-.96 2.47-2.2 4.29-2.87 5.15-.21.27-.36.447-.43.527-.02.03-.05.05-.05.05l.005-.003c2.84-1.72 4.64-4.03 5.77-6.285.2-.4.377-.8.545-1.19 1.07-2.6 1.33-4.96 1.39-6.004 1.01.72 1.67 1.895 1.67 3.23 0 .1-.01.19-.02.29 2.5-2.45 4.14-5.34 4.77-8.53.94-4.655-.473-10.28-4.3-15.14z"/><path fill="#3E0000" d="M61.618 43.548c-1.033-.077-1.93.69-2.012 1.708-.033.495.134.96.43 1.316.506.062 1.08.11 1.73.13.368.014.724.006 1.065-.018.13-.13.24-.28.33-.443l-1.31-.64 1.44-.71c-.21-.72-.85-1.27-1.66-1.33z"/><path fill="#870815" d="M66.23 45.887c1.974-.51 2.235-2.4 2.235-2.4-.853.795-1.848.59-1.848.59s-1.42-2.477-4.926-2.553c-4.15-.087-5.49 3.653-5.49 3.653s1.88-2.917 5.31-2.71c3.44.21 4.67 3.437 4.67 3.437.02-.004.04-.012.06-.017z"/><path fill="#C14E47" d="M49.242 60.455c-2.333 0-4.064-.48-5.314-1.077.305.31.838.812 1.556 1.28.957.632 2.24 1.194 3.758 1.194 1.62 0 2.914-.583 3.822-1.193.798-.53 1.296-1.09 1.446-1.27-1.246.59-2.964 1.06-5.268 1.06z"/><path fill="#870815" d="M50.918 57.658s-1.17.234-1.584.922c-.037.06-.072.125-.092.194-.025-.07-.057-.134-.097-.194-.41-.688-1.584-.922-1.584-.922-2.4-.604-2.79.56-6.43-.563 0 0 .28.47.94 1.053.44.393 1.06.835 1.87 1.23 1.25.598 2.98 1.077 5.32 1.077 2.31 0 4.02-.473 5.27-1.06.84-.4 1.47-.85 1.92-1.244.66-.58.94-1.05.94-1.05-3.64 1.13-4.03-.04-6.44.57z"/><path fill="#F58C4B" d="M53.57 70.124s-.167-1.254-.244-2.162c0 0-2.176.55-5.67.342 0 0 2.505 1.717 5.915 1.82z"/></svg>