<?xml version="1.0" standalone="no"?>
<!DOCTYPE svg PUBLIC "-//W3C//DTD SVG 20010904//EN"
 "http://www.w3.org/TR/2001/REC-SVG-20010904/DTD/svg10.dtd">
<svg version="1.0" xmlns="http://www.w3.org/2000/svg"
 width="260.000000pt" height="260.000000pt" viewBox="0 0 260.000000 260.000000"
 preserveAspectRatio="xMidYMid meet">
<metadata>
Created by potrace 1.11, written by Peter Selinger 2001-2013
</metadata>
<g transform="translate(0.000000,260.000000) scale(0.100000,-0.100000)"
fill="#000000" stroke="none">
<path d="M77 2528 l-77 -73 0 -565 0 -565 25 38 c14 20 29 37 33 37 4 0 13
-34 19 -75 14 -88 58 -222 82 -250 9 -11 29 -38 43 -61 49 -77 193 -224 220
-224 4 0 -11 28 -33 63 -67 103 -118 223 -134 312 l-7 40 48 -46 c97 -93 223
-139 377 -139 137 0 252 47 356 145 107 101 162 211 182 363 7 51 7 97 0 137
-5 33 -5 64 -1 69 15 15 104 18 145 4 l40 -13 -3 -100 c-6 -180 50 -326 168
-446 116 -116 248 -166 415 -156 142 7 240 49 348 146 l38 34 -7 -29 c-24
-102 -87 -242 -148 -333 -20 -29 -36 -55 -36 -57 0 -3 19 8 43 24 56 39 125
114 173 188 21 32 46 68 55 79 32 36 89 219 89 283 0 44 15 47 44 10 l26 -33
0 561 0 561 -75 72 -75 71 -1148 0 -1148 0 -77 -72z m1644 -115 c-36 -70 -131
-141 -263 -198 -59 -26 -85 -45 -60 -45 4 0 56 -5 116 -10 255 -25 551 42 705
158 33 25 34 25 48 6 44 -58 154 -326 141 -340 -3 -3 -23 6 -43 20 -79 54
-283 93 -420 81 -173 -15 -307 -57 -390 -124 -39 -31 -100 -101 -107 -123 -3
-7 -20 -5 -51 6 -55 19 -160 21 -207 5 -29 -10 -34 -10 -43 7 -22 41 -125 131
-182 158 -199 94 -536 94 -704 0 -24 -13 -47 -24 -52 -24 -4 0 6 25 24 56 42
74 123 147 195 175 55 22 69 23 357 24 238 1 320 5 395 19 135 25 296 80 435
151 75 38 121 56 123 48 2 -6 -6 -29 -17 -50z m-872 -472 c163 -51 251 -155
267 -320 18 -172 -99 -372 -263 -453 -65 -32 -72 -33 -188 -33 -115 0 -123 1
-186 32 -180 88 -290 297 -258 492 23 147 116 244 272 286 80 21 281 19 356
-4z m1256 4 c222 -58 322 -227 271 -458 -31 -139 -128 -261 -256 -321 -55 -26
-80 -31 -163 -34 -83 -4 -107 -1 -160 18 -34 13 -80 35 -102 50 -238 163 -277
538 -71 679 45 31 123 65 166 74 63 11 259 6 315 -8z"/>
<path d="M688 1890 c-143 -24 -244 -88 -297 -188 -15 -28 -5 -62 17 -61 9 0
31 19 47 42 46 65 134 105 265 120 101 12 105 13 115 40 18 52 -29 67 -147 47z"/>
<path d="M619 1665 c-80 -17 -104 -30 -158 -80 l-49 -46 -38 16 c-20 8 -39 13
-42 10 -10 -10 49 -85 80 -101 30 -15 32 -15 44 2 44 65 64 86 108 115 41 27
62 33 122 37 61 4 80 1 127 -21 30 -13 74 -42 97 -63 42 -38 43 -38 27 -9 -55
105 -193 166 -318 140z"/>
<path d="M641 1544 c-24 -20 -31 -34 -31 -62 1 -56 18 -72 78 -72 28 0 63 5
79 11 l28 11 -27 14 c-35 18 -35 28 -3 42 32 15 32 35 -1 61 -37 29 -85 27
-123 -5z"/>
<path d="M1777 1885 c-20 -19 -20 -17 -8 -48 9 -23 17 -25 93 -32 46 -4 112
-16 148 -27 53 -17 74 -30 123 -80 60 -62 87 -69 87 -25 0 30 -47 97 -92 130
-72 54 -151 82 -264 92 -59 6 -73 4 -87 -10z"/>
<path d="M1871 1668 c-66 -11 -127 -45 -171 -95 -52 -60 -51 -73 3 -30 75 61
103 72 198 72 78 0 90 -3 135 -30 29 -18 63 -52 84 -83 19 -28 38 -51 41 -52
28 -1 122 100 107 116 -3 2 -21 -2 -41 -11 l-36 -15 -43 40 c-75 71 -182 105
-277 88z"/>
<path d="M1857 1550 c-34 -27 -45 -81 -24 -114 15 -22 22 -24 88 -22 77 1 102
18 55 36 -33 12 -33 24 -1 38 32 15 32 35 -1 61 -34 27 -84 27 -117 1z"/>
<path d="M1344 1358 c29 -98 15 -163 -47 -219 -17 -16 -28 -31 -25 -35 16 -15
92 10 126 40 30 28 36 40 39 87 5 64 -18 108 -68 135 -32 16 -32 16 -25 -8z"/>
<path d="M900 896 c0 -18 19 -34 148 -120 117 -78 185 -106 257 -106 57 0 158
36 209 75 23 17 67 48 97 67 57 37 106 84 97 93 -3 3 -18 0 -34 -6 -17 -7 -83
-13 -159 -13 -114 -1 -135 -4 -172 -23 l-43 -23 -37 22 c-33 20 -52 22 -173
24 -75 0 -147 6 -162 12 -22 9 -28 9 -28 -2z"/>
</g>
</svg>
