<?xml version="1.0" standalone="no"?>
<!DOCTYPE svg PUBLIC "-//W3C//DTD SVG 20010904//EN"
 "http://www.w3.org/TR/2001/REC-SVG-20010904/DTD/svg10.dtd">
<svg version="1.0" xmlns="http://www.w3.org/2000/svg"
 width="260.000000pt" height="260.000000pt" viewBox="0 0 260.000000 260.000000"
 preserveAspectRatio="xMidYMid meet">
<metadata>
Created by potrace 1.11, written by Peter Selinger 2001-2013
</metadata>
<g transform="translate(0.000000,260.000000) scale(0.100000,-0.100000)"
fill="#000000" stroke="none">
<path d="M190 2588 c0 -6 -43 -52 -95 -101 l-95 -89 0 -566 0 -567 25 38 c30
43 45 47 45 11 0 -45 31 -167 63 -244 37 -92 100 -190 158 -249 55 -54 148
-126 155 -118 3 3 -13 29 -34 57 -68 90 -140 248 -157 345 l-7 40 48 -46 c97
-93 223 -139 377 -139 137 0 252 47 356 145 107 101 162 211 182 363 7 51 7
97 0 137 -5 33 -5 64 -1 69 16 16 104 18 145 3 l40 -14 -3 -99 c-6 -179 49
-323 168 -444 115 -117 247 -167 415 -157 142 7 240 49 347 145 21 19 38 32
38 29 0 -3 -13 -46 -29 -95 -36 -108 -74 -185 -136 -276 -25 -38 -44 -70 -42
-72 8 -8 136 97 179 146 85 98 146 221 182 366 9 34 16 76 16 92 0 44 15 47
44 10 l26 -33 0 567 0 566 -72 66 c-68 62 -71 67 -60 91 7 14 12 28 12 30 0 3
-515 5 -1145 5 -867 0 -1145 -3 -1145 -12z m1531 -235 c-36 -70 -131 -141
-263 -198 -38 -16 -68 -33 -68 -36 0 -23 320 -30 445 -10 133 22 302 87 384
149 33 25 34 25 48 6 44 -58 154 -326 141 -340 -3 -3 -23 6 -43 20 -79 54
-283 93 -420 81 -173 -15 -307 -57 -390 -124 -39 -31 -100 -101 -107 -123 -3
-7 -20 -5 -51 6 -55 19 -160 21 -207 5 -29 -10 -34 -10 -43 7 -22 41 -125 131
-182 158 -199 94 -536 94 -704 0 -24 -13 -46 -22 -49 -20 -2 3 9 28 24 56 38
69 120 143 192 171 55 22 70 23 362 25 343 1 401 8 592 71 62 20 167 64 233
98 75 38 121 56 123 48 2 -6 -6 -29 -17 -50z m-872 -472 c163 -51 251 -155
267 -320 18 -172 -99 -372 -263 -453 -65 -32 -72 -33 -188 -33 -116 0 -122 1
-188 33 -179 88 -288 297 -256 491 23 147 116 244 272 286 80 21 281 19 356
-4z m1256 4 c222 -58 322 -227 271 -458 -31 -139 -128 -261 -256 -321 -55 -26
-80 -31 -163 -34 -83 -4 -107 -1 -160 18 -77 28 -132 65 -188 128 -165 183
-157 483 15 601 45 31 123 65 166 74 63 11 259 6 315 -8z"/>
<path d="M688 1830 c-143 -24 -244 -88 -297 -188 -15 -28 -5 -62 17 -61 9 0
31 19 47 42 46 65 134 105 265 120 101 12 105 13 115 40 18 52 -29 67 -147 47z"/>
<path d="M619 1605 c-79 -17 -104 -30 -157 -79 l-47 -44 -40 13 c-21 8 -41 12
-44 10 -9 -10 51 -86 81 -101 30 -15 32 -15 44 2 44 65 64 86 108 115 41 27
62 33 122 37 61 4 80 1 127 -21 30 -13 74 -42 97 -63 42 -38 43 -38 27 -9 -55
105 -193 166 -318 140z"/>
<path d="M641 1484 c-24 -20 -31 -34 -31 -62 1 -62 19 -76 94 -70 81 7 98 16
62 35 -33 17 -33 27 -1 41 32 15 32 35 -1 61 -37 29 -85 27 -123 -5z"/>
<path d="M1777 1825 c-20 -19 -20 -17 -8 -48 9 -23 17 -25 93 -32 46 -4 112
-16 148 -27 53 -17 74 -30 123 -80 60 -62 87 -69 87 -25 0 13 -13 42 -29 64
-66 91 -177 145 -327 159 -58 5 -73 4 -87 -11z"/>
<path d="M1871 1608 c-66 -11 -127 -45 -171 -95 -52 -60 -51 -73 3 -30 66 54
106 70 184 75 65 4 78 2 130 -24 51 -26 123 -98 135 -135 4 -13 39 1 72 30 20
18 50 70 43 77 -2 2 -20 -3 -40 -11 l-36 -15 -43 40 c-76 71 -182 105 -277 88z"/>
<path d="M1849 1481 c-32 -33 -38 -74 -14 -108 13 -18 24 -21 86 -19 78 1 100
17 55 37 -34 16 -33 22 6 41 l33 15 -32 31 c-43 43 -92 44 -134 3z"/>
<path d="M1344 1298 c4 -12 9 -46 13 -74 5 -43 1 -59 -18 -93 -12 -23 -33 -48
-46 -56 -36 -24 -28 -38 17 -31 81 11 122 53 127 128 5 63 -18 108 -68 134
-32 16 -32 16 -25 -8z"/>
<path d="M900 836 c0 -29 236 -188 313 -211 94 -28 197 -11 279 46 24 17 72
50 108 73 100 66 145 124 74 95 -17 -7 -83 -13 -159 -13 -114 -1 -135 -4 -172
-23 l-43 -23 -37 22 c-33 20 -52 22 -173 24 -75 0 -147 6 -162 12 -23 9 -28 9
-28 -2z"/>
</g>
</svg>
